<svg width="40" height="40" viewBox="0 0 40 40" fill="none" xmlns="http://www.w3.org/2000/svg">
<g clip-path="url(#clip0)">
<path d="M23.6646 20.0327L39.2398 4.45705C40.2535 3.44391 40.2535 1.80582 39.2398 0.792686C38.2267 -0.220446 36.5886 -0.220446 35.5755 0.792686L19.9998 16.3684L4.42457 0.792686C3.41096 -0.220446 1.77334 -0.220446 0.760206 0.792686C-0.253402 1.80582 -0.253402 3.44391 0.760206 4.45705L16.3354 20.0327L0.760206 35.6084C-0.253402 36.6215 -0.253402 38.2596 0.760206 39.2727C1.26511 39.7781 1.92899 40.032 2.59239 40.032C3.25579 40.032 3.91919 39.7781 4.42457 39.2727L19.9998 23.6971L35.5755 39.2727C36.0809 39.7781 36.7443 40.032 37.4077 40.032C38.0711 40.032 38.7345 39.7781 39.2398 39.2727C40.2535 38.2596 40.2535 36.6215 39.2398 35.6084L23.6646 20.0327Z" fill="white"/>
</g>
<defs>
<clipPath id="clip0">
<rect width="40" height="40" fill="white"/>
</clipPath>
</defs>
</svg>
