<svg width="80" height="80" viewBox="0 0 80 80" fill="none" xmlns="http://www.w3.org/2000/svg">
<path d="M10.4 21.6C9.97566 21.6 9.56869 21.7686 9.26863 22.0686C8.96857 22.3687 8.8 22.7757 8.8 23.2C8.8 23.6244 8.96857 24.0313 9.26863 24.3314C9.56869 24.6314 9.97566 24.8 10.4 24.8C10.8243 24.8 11.2313 24.6314 11.5314 24.3314C11.8314 24.0313 12 23.6244 12 23.2C12 22.7757 11.8314 22.3687 11.5314 22.0686C11.2313 21.7686 10.8243 21.6 10.4 21.6Z" fill="#EE3E54"/>
<path d="M61.6 9.60001C61.3878 9.60001 61.1843 9.68429 61.0343 9.83432C60.8843 9.98435 60.8 10.1878 60.8 10.4C60.8 10.6122 60.8843 10.8157 61.0343 10.9657C61.1843 11.1157 61.3878 11.2 61.6 11.2C61.8122 11.2 62.0157 11.1157 62.1657 10.9657C62.3157 10.8157 62.4 10.6122 62.4 10.4C62.4 10.1878 62.3157 9.98435 62.1657 9.83432C62.0157 9.68429 61.8122 9.60001 61.6 9.60001Z" fill="#F1BC19"/>
<path d="M40 10.4C32.1496 10.4 24.6207 13.5186 19.0696 19.0696C13.5186 24.6207 10.4 32.1496 10.4 40C10.4 47.8504 13.5186 55.3793 19.0696 60.9304C24.6207 66.4814 32.1496 69.6 40 69.6C47.8504 69.6 55.3793 66.4814 60.9304 60.9304C66.4814 55.3793 69.6 47.8504 69.6 40C69.6 32.1496 66.4814 24.6207 60.9304 19.0696C55.3793 13.5186 47.8504 10.4 40 10.4Z" fill="#FCE0A2"/>
<path d="M66.4 8.79999C65.5513 8.79999 64.7374 9.13713 64.1373 9.73725C63.5371 10.3374 63.2 11.1513 63.2 12C63.2 12.8487 63.5371 13.6626 64.1373 14.2627C64.7374 14.8628 65.5513 15.2 66.4 15.2C67.2487 15.2 68.0626 14.8628 68.6627 14.2627C69.2629 13.6626 69.6 12.8487 69.6 12C69.6 11.1513 69.2629 10.3374 68.6627 9.73725C68.0626 9.13713 67.2487 8.79999 66.4 8.79999Z" fill="#F1BC19"/>
<path d="M69.6 17.6C69.1757 17.6 68.7687 17.7686 68.4686 18.0686C68.1686 18.3687 68 18.7757 68 19.2C68 19.6244 68.1686 20.0313 68.4686 20.3314C68.7687 20.6314 69.1757 20.8 69.6 20.8C70.0243 20.8 70.4313 20.6314 70.7314 20.3314C71.0314 20.0313 71.2 19.6244 71.2 19.2C71.2 18.7757 71.0314 18.3687 70.7314 18.0686C70.4313 17.7686 70.0243 17.6 69.6 17.6Z" fill="#EE3E54"/>
<path d="M64.8 59.2C64.3757 59.2 63.9687 59.3686 63.6686 59.6686C63.3686 59.9687 63.2 60.3757 63.2 60.8C63.2 61.2244 63.3686 61.6313 63.6686 61.9314C63.9687 62.2314 64.3757 62.4 64.8 62.4C65.2243 62.4 65.6313 62.2314 65.9314 61.9314C66.2314 61.6313 66.4 61.2244 66.4 60.8C66.4 60.3757 66.2314 59.9687 65.9314 59.6686C65.6313 59.3686 65.2243 59.2 64.8 59.2ZM12 47.2C11.1513 47.2 10.3374 47.5372 9.73726 48.1373C9.13714 48.7374 8.8 49.5513 8.8 50.4C8.8 51.2487 9.13714 52.0626 9.73726 52.6628C10.3374 53.2629 11.1513 53.6 12 53.6C12.8487 53.6 13.6626 53.2629 14.2627 52.6628C14.8629 52.0626 15.2 51.2487 15.2 50.4C15.2 49.5513 14.8629 48.7374 14.2627 48.1373C13.6626 47.5372 12.8487 47.2 12 47.2Z" fill="#FBCD59"/>
<path d="M20 68C19.5757 68 19.1687 68.1686 18.8686 68.4686C18.5686 68.7687 18.4 69.1757 18.4 69.6C18.4 70.0243 18.5686 70.4313 18.8686 70.7314C19.1687 71.0314 19.5757 71.2 20 71.2C20.4243 71.2 20.8313 71.0314 21.1314 70.7314C21.4314 70.4313 21.6 70.0243 21.6 69.6C21.6 69.1757 21.4314 68.7687 21.1314 68.4686C20.8313 68.1686 20.4243 68 20 68Z" fill="#EE3E54"/>
<path d="M14.8 40.8C14.2696 40.8 13.7609 41.0107 13.3858 41.3858C13.0107 41.7608 12.8 42.2696 12.8 42.8C12.8 43.3304 13.0107 43.8391 13.3858 44.2142C13.7609 44.5893 14.2696 44.8 14.8 44.8C15.3304 44.8 15.8391 44.5893 16.2142 44.2142C16.5893 43.8391 16.8 43.3304 16.8 42.8C16.8 42.2696 16.5893 41.7608 16.2142 41.3858C15.8391 41.0107 15.3304 40.8 14.8 40.8Z" fill="white"/>
<path d="M16.8 52.8C16.5878 52.8 16.3843 52.8843 16.2343 53.0343C16.0843 53.1843 16 53.3878 16 53.6C16 53.8122 16.0843 54.0156 16.2343 54.1657C16.3843 54.3157 16.5878 54.4 16.8 54.4C17.0122 54.4 17.2157 54.3157 17.3657 54.1657C17.5157 54.0156 17.6 53.8122 17.6 53.6C17.6 53.3878 17.5157 53.1843 17.3657 53.0343C17.2157 52.8843 17.0122 52.8 16.8 52.8Z" fill="#F1BC19"/>
<path d="M64 26.4C63.7878 26.4 63.5843 26.4843 63.4343 26.6343C63.2843 26.7843 63.2 26.9878 63.2 27.2C63.2 27.4122 63.2843 27.6156 63.4343 27.7657C63.5843 27.9157 63.7878 28 64 28C64.2122 28 64.4157 27.9157 64.5657 27.7657C64.7157 27.6156 64.8 27.4122 64.8 27.2C64.8 26.9878 64.7157 26.7843 64.5657 26.6343C64.4157 26.4843 64.2122 26.4 64 26.4Z" fill="white"/>
<path d="M40 20.5C37.4524 20.5 34.9297 21.0018 32.5759 21.9767C30.2222 22.9517 28.0836 24.3807 26.2821 26.1821C24.4807 27.9836 23.0517 30.1222 22.0767 32.4759C21.1018 34.8297 20.6 37.3524 20.6 39.9C20.6 42.4476 21.1018 44.9703 22.0767 47.3241C23.0517 49.6778 24.4807 51.8164 26.2821 53.6179C28.0836 55.4193 30.2222 56.8483 32.5759 57.8233C34.9297 58.7982 37.4524 59.3 40 59.3C42.5476 59.3 45.0703 58.7982 47.4241 57.8233C49.7778 56.8483 51.9164 55.4193 53.7179 53.6179C55.5193 51.8164 56.9483 49.6778 57.9233 47.3241C58.8982 44.9703 59.4 42.4476 59.4 39.9C59.4 37.3524 58.8982 34.8297 57.9233 32.4759C56.9483 30.1222 55.5193 27.9836 53.7179 26.1821C51.9164 24.3807 49.7778 22.9517 47.4241 21.9767C45.0703 21.0018 42.5476 20.5 40 20.5Z" fill="#4985C1"/>
<path d="M40 59.86C28.9944 59.86 20.04 50.9064 20.04 39.9C20.04 28.8936 28.9944 19.94 40 19.94C51.0056 19.94 59.96 28.8936 59.96 39.9C59.96 50.9064 51.0056 59.86 40 59.86ZM40 21.06C29.612 21.06 21.16 29.5112 21.16 39.9C21.16 50.2888 29.612 58.74 40 58.74C50.388 58.74 58.84 50.2888 58.84 39.9C58.84 29.5112 50.388 21.06 40 21.06Z" fill="#472B29"/>
<path d="M55.5392 35.7C55.368 35.7 55.2096 35.5888 55.1568 35.4168C55.0864 35.1872 55.0104 34.96 54.9296 34.7344C54.616 33.8592 54.2208 33.0072 53.7536 32.1992C53.6424 32.0088 53.708 31.7632 53.8992 31.6528C54.0904 31.5416 54.3352 31.608 54.4456 31.7992C54.9368 32.648 55.3528 33.5448 55.6824 34.464C55.7672 34.7016 55.8472 34.94 55.9208 35.1816C55.9856 35.3928 55.8672 35.6168 55.6552 35.6816C55.6168 35.6944 55.5776 35.7 55.5392 35.7Z" fill="#472B29"/>
<path d="M40 56.6C30.7912 56.6 23.3 49.1304 23.3 39.9496C23.3 30.7688 30.7912 23.3 40 23.3C44.78 23.3 49.3392 25.348 52.5088 28.9184C52.748 29.188 52.9792 29.4664 53.2008 29.7512C53.336 29.9256 53.3048 30.176 53.1312 30.312C52.9568 30.4488 52.7056 30.4168 52.5696 30.2416C52.3584 29.9704 52.1376 29.7064 51.9104 29.4496C48.8928 26.0496 44.5512 24.0992 40 24.0992C31.2328 24.0992 24.1 31.2096 24.1 39.9496C24.1 48.6896 31.2328 55.8 40 55.8C48.7672 55.8 55.9 48.6896 55.9 39.9496C55.9 39.1536 55.84 38.3528 55.7224 37.5712C55.6896 37.3536 55.84 37.1496 56.0584 37.1168C56.2824 37.0816 56.4808 37.2344 56.5136 37.4528C56.6368 38.2728 56.7 39.1136 56.7 39.9496C56.7 49.1304 49.2088 56.6 40 56.6Z" fill="#472B29"/>
<path d="M37.144 33.7176C37.144 34.2504 37.144 36.424 37.144 36.424H35.2824V39.5256H37.144V49.4512H41.4864V39.5256H44.0376C44.0376 39.5256 44.2768 38.0456 44.3912 36.424C44.0584 36.424 40.8656 36.424 40.8656 36.424C40.8656 36.424 40.8656 34.4728 40.8656 34.1288C40.8656 33.7856 41.3152 33.3216 41.76 33.3216C42.2048 33.3216 43.6976 33.3216 44.5872 33.3216C44.5872 32.8328 44.5872 31.1544 44.5872 29.6C43.404 29.6 42.0552 29.6 41.464 29.6C37.04 29.6048 37.144 33.1832 37.144 33.7176Z" fill="#FFFEF4"/>
<path d="M41.4872 49.6512H37.144C37.0336 49.6512 36.944 49.5616 36.944 49.4512V39.7256H35.2824C35.172 39.7256 35.0824 39.636 35.0824 39.5256V36.424C35.0824 36.3136 35.172 36.224 35.2824 36.224H36.944V33.7168H37.144L36.944 33.6816C36.9392 32.3672 37.3128 31.3232 38.0552 30.5776C38.832 29.7968 39.9792 29.4008 41.464 29.3992H44.5872C44.6976 29.3992 44.7872 29.4888 44.7872 29.5992V33.3208C44.7872 33.4312 44.6976 33.5208 44.5872 33.5208H41.76C41.416 33.5208 41.0656 33.9096 41.0656 34.128V36.2232H44.3912C44.4464 36.2232 44.5 36.2464 44.5376 36.2864C44.5752 36.3272 44.5944 36.3816 44.5904 36.4368C44.476 38.0488 44.2376 39.5416 44.2344 39.556C44.2184 39.6528 44.1352 39.724 44.0368 39.724H41.6864V49.4496C41.6872 49.5616 41.5976 49.6512 41.4872 49.6512ZM37.344 49.2512H41.2872V39.5256C41.2872 39.4152 41.3768 39.3256 41.4872 39.3256H43.8664C43.9272 38.9176 44.0832 37.8216 44.176 36.624H40.8656C40.7552 36.624 40.6656 36.5344 40.6656 36.424V34.1288C40.6656 33.6888 41.196 33.1216 41.76 33.1216H44.3872V29.8H41.464C40.0888 29.8016 39.0368 30.1584 38.3384 30.86C37.6736 31.528 37.3392 32.4768 37.344 33.68V33.7168V36.424C37.344 36.5344 37.2544 36.624 37.144 36.624H35.4824V39.3256H37.144C37.2544 39.3256 37.344 39.4152 37.344 39.5256V49.2512Z" fill="#472B29"/>
</svg>
