<svg width="80" height="80" viewBox="0 0 80 80" fill="none" xmlns="http://www.w3.org/2000/svg">
<path d="M61.6 9.60001C61.3878 9.60001 61.1843 9.68429 61.0343 9.83432C60.8843 9.98435 60.8 10.1878 60.8 10.4C60.8 10.6122 60.8843 10.8157 61.0343 10.9657C61.1843 11.1157 61.3878 11.2 61.6 11.2C61.8122 11.2 62.0157 11.1157 62.1657 10.9657C62.3157 10.8157 62.4 10.6122 62.4 10.4C62.4 10.1878 62.3157 9.98435 62.1657 9.83432C62.0157 9.68429 61.8122 9.60001 61.6 9.60001Z" fill="#F1BC19"/>
<path d="M40 10.4C32.1496 10.4 24.6207 13.5186 19.0696 19.0696C13.5186 24.6207 10.4 32.1496 10.4 40C10.4 47.8504 13.5186 55.3793 19.0696 60.9304C24.6207 66.4814 32.1496 69.6 40 69.6C47.8504 69.6 55.3793 66.4814 60.9304 60.9304C66.4814 55.3793 69.6 47.8504 69.6 40C69.6 32.1496 66.4814 24.6207 60.9304 19.0696C55.3793 13.5186 47.8504 10.4 40 10.4Z" fill="#E4E4F9"/>
<path d="M66.4 8.79999C65.5513 8.79999 64.7374 9.13713 64.1373 9.73725C63.5371 10.3374 63.2 11.1513 63.2 12C63.2 12.8487 63.5371 13.6626 64.1373 14.2627C64.7374 14.8628 65.5513 15.2 66.4 15.2C67.2487 15.2 68.0626 14.8628 68.6627 14.2627C69.2629 13.6626 69.6 12.8487 69.6 12C69.6 11.1513 69.2629 10.3374 68.6627 9.73725C68.0626 9.13713 67.2487 8.79999 66.4 8.79999Z" fill="#F1BC19"/>
<path d="M69.6 17.6C69.1757 17.6 68.7687 17.7686 68.4686 18.0686C68.1686 18.3687 68 18.7757 68 19.2C68 19.6244 68.1686 20.0313 68.4686 20.3314C68.7687 20.6314 69.1757 20.8 69.6 20.8C70.0243 20.8 70.4313 20.6314 70.7314 20.3314C71.0314 20.0313 71.2 19.6244 71.2 19.2C71.2 18.7757 71.0314 18.3687 70.7314 18.0686C70.4313 17.7686 70.0243 17.6 69.6 17.6Z" fill="#8889B9"/>
<path d="M64.8 59.2C64.3756 59.2 63.9687 59.3686 63.6686 59.6686C63.3686 59.9687 63.2 60.3757 63.2 60.8C63.2 61.2244 63.3686 61.6313 63.6686 61.9314C63.9687 62.2314 64.3756 62.4 64.8 62.4C65.2243 62.4 65.6313 62.2314 65.9314 61.9314C66.2314 61.6313 66.4 61.2244 66.4 60.8C66.4 60.3757 66.2314 59.9687 65.9314 59.6686C65.6313 59.3686 65.2243 59.2 64.8 59.2ZM12 47.2C11.1513 47.2 10.3374 47.5372 9.73725 48.1373C9.13713 48.7374 8.79999 49.5513 8.79999 50.4C8.79999 51.2487 9.13713 52.0626 9.73725 52.6628C10.3374 53.2629 11.1513 53.6 12 53.6C12.8487 53.6 13.6626 53.2629 14.2627 52.6628C14.8628 52.0626 15.2 51.2487 15.2 50.4C15.2 49.5513 14.8628 48.7374 14.2627 48.1373C13.6626 47.5372 12.8487 47.2 12 47.2Z" fill="#FBCD59"/>
<path d="M20 68C19.5756 68 19.1687 68.1686 18.8686 68.4686C18.5686 68.7687 18.4 69.1757 18.4 69.6C18.4 70.0243 18.5686 70.4313 18.8686 70.7314C19.1687 71.0314 19.5756 71.2 20 71.2C20.4243 71.2 20.8313 71.0314 21.1314 70.7314C21.4314 70.4313 21.6 70.0243 21.6 69.6C21.6 69.1757 21.4314 68.7687 21.1314 68.4686C20.8313 68.1686 20.4243 68 20 68Z" fill="#8889B9"/>
<path d="M14.8 39.2C14.2696 39.2 13.7608 39.4107 13.3858 39.7858C13.0107 40.1609 12.8 40.6696 12.8 41.2C12.8 41.7304 13.0107 42.2392 13.3858 42.6142C13.7608 42.9893 14.2696 43.2 14.8 43.2C15.3304 43.2 15.8391 42.9893 16.2142 42.6142C16.5893 42.2392 16.8 41.7304 16.8 41.2C16.8 40.6696 16.5893 40.1609 16.2142 39.7858C15.8391 39.4107 15.3304 39.2 14.8 39.2ZM63.6 25.6C63.2817 25.6 62.9765 25.7264 62.7515 25.9515C62.5264 26.1765 62.4 26.4817 62.4 26.8C62.4 27.1183 62.5264 27.4235 62.7515 27.6485C62.9765 27.8736 63.2817 28 63.6 28C63.9183 28 64.2235 27.8736 64.4485 27.6485C64.6736 27.4235 64.8 27.1183 64.8 26.8C64.8 26.4817 64.6736 26.1765 64.4485 25.9515C64.2235 25.7264 63.9183 25.6 63.6 25.6Z" fill="white"/>
<path d="M40 20.5C37.4524 20.5 34.9297 21.0018 32.5759 21.9767C30.2222 22.9517 28.0836 24.3807 26.2821 26.1821C24.4807 27.9836 23.0517 30.1222 22.0767 32.4759C21.1018 34.8297 20.6 37.3524 20.6 39.9C20.6 42.4476 21.1018 44.9703 22.0767 47.3241C23.0517 49.6778 24.4807 51.8164 26.2821 53.6179C28.0836 55.4193 30.2222 56.8483 32.5759 57.8233C34.9297 58.7982 37.4524 59.3 40 59.3C42.5477 59.3 45.0704 58.7982 47.4241 57.8233C49.7778 56.8483 51.9164 55.4193 53.7179 53.6179C55.5193 51.8164 56.9483 49.6778 57.9233 47.3241C58.8982 44.9703 59.4 42.4476 59.4 39.9C59.4 37.3524 58.8982 34.8297 57.9233 32.4759C56.9483 30.1222 55.5193 27.9836 53.7179 26.1821C51.9164 24.3807 49.7778 22.9517 47.4241 21.9767C45.0704 21.0018 42.5477 20.5 40 20.5Z" fill="#A3A3CD"/>
<path d="M40 59.86C28.9944 59.86 20.04 50.9064 20.04 39.9C20.04 28.8936 28.9944 19.94 40 19.94C51.0056 19.94 59.96 28.8936 59.96 39.9C59.96 50.9064 51.0056 59.86 40 59.86ZM40 21.06C29.612 21.06 21.16 29.5112 21.16 39.9C21.16 50.2888 29.612 58.74 40 58.74C50.388 58.74 58.84 50.2888 58.84 39.9C58.84 29.5112 50.388 21.06 40 21.06Z" fill="#472B29"/>
<path d="M40 23.3336C35.6505 23.3336 31.4791 25.0614 28.4035 28.137C25.3279 31.2126 23.6 35.384 23.6 39.7336C23.6 44.0831 25.3279 48.2545 28.4035 51.3301C31.4791 54.4057 35.6505 56.1336 40 56.1336C44.3496 56.1336 48.521 54.4057 51.5966 51.3301C54.6722 48.2545 56.4 44.0831 56.4 39.7336C56.4 35.384 54.6722 31.2126 51.5966 28.137C48.521 25.0614 44.3496 23.3336 40 23.3336Z" fill="#565FA1"/>
<path d="M55.5392 35.7C55.368 35.7 55.2096 35.5888 55.1568 35.4168C55.0864 35.1872 55.0104 34.96 54.9296 34.7344C54.616 33.8592 54.2208 33.0072 53.7536 32.1992C53.6424 32.0088 53.708 31.7632 53.8992 31.6528C54.0904 31.54 54.3352 31.6072 54.4456 31.7992C54.9368 32.648 55.3528 33.5448 55.6824 34.464C55.7672 34.7016 55.8472 34.94 55.9208 35.1816C55.9856 35.3928 55.8672 35.6168 55.6552 35.6816C55.6168 35.6944 55.5776 35.7 55.5392 35.7Z" fill="#472B29"/>
<path d="M40 56.6C30.7912 56.6 23.3 49.1304 23.3 39.9496C23.3 30.7688 30.7912 23.3 40 23.3C44.78 23.3 49.3392 25.348 52.5088 28.9184C52.748 29.188 52.9792 29.4664 53.2008 29.7512C53.336 29.9256 53.3048 30.176 53.1312 30.312C52.9568 30.4488 52.7056 30.4168 52.5696 30.2416C52.3584 29.9704 52.1376 29.7064 51.9104 29.4496C48.8928 26.0496 44.5512 24.0992 40 24.0992C31.2328 24.0992 24.1 31.2096 24.1 39.9496C24.1 48.6896 31.2328 55.8 40 55.8C48.7672 55.8 55.9 48.6896 55.9 39.9496C55.9 39.1536 55.84 38.3528 55.7224 37.5712C55.6896 37.3536 55.84 37.1496 56.0584 37.1168C56.2808 37.0808 56.4808 37.2344 56.5136 37.4528C56.6368 38.2728 56.7 39.1136 56.7 39.9496C56.7 49.1304 49.2088 56.6 40 56.6Z" fill="#472B29"/>
<path d="M49.1968 33.6704C49.4888 32.3336 49.3616 30.676 48.808 29.016C45.9104 29.016 43.7368 31.1888 43.7368 31.1888C43.7368 31.1888 43.7496 31.2032 43.7528 31.2072C43.7016 31.2064 43.652 31.2 43.6 31.2H36.4C36.3656 31.2 36.332 31.2048 36.2976 31.2048C36.3 31.2016 36.3112 31.1888 36.3112 31.1888C36.3112 31.1888 34.1376 29.016 31.24 29.016C30.6928 30.6584 30.56 32.2992 30.84 33.6296C29.5784 34.9856 28.8 36.8 28.8 38.8C28.8 42.9976 32.2024 46.4 36.4 46.4H37.2584C36.2152 46.9672 35.4616 47.9832 35.264 49.1984C33.888 49.384 32.0808 49.3424 31.2416 48.0832C29.7928 45.9096 29.068 45.9096 28.344 45.9096C27.62 45.9096 27.6192 46.6344 28.344 47.3584C29.0688 48.0832 29.0688 48.0832 29.7928 49.532C30.4104 50.7664 32.0424 52.1704 35.2008 51.6624V54.4808C35.2008 54.8384 35.264 55.1776 35.3536 55.5064C37.2936 55.968 40.5552 56.3552 44.6856 55.3856C44.7544 55.0944 44.8 54.7944 44.8 54.4816V49.8288C44.8 48.3424 43.9624 47.064 42.7416 46.4H43.6C47.7976 46.4 51.2 42.9976 51.2 38.8C51.2 36.82 50.4368 35.0232 49.1968 33.6704Z" fill="#FEFDEF"/>
<path d="M39.6256 56.3888C37.8416 56.3888 36.3656 56.1592 35.26 55.896C35.1176 55.8624 35.0048 55.7528 34.9664 55.612C34.8528 55.1944 34.8 54.8344 34.8 54.4816V52.12C31.1496 52.5312 29.7768 50.3968 29.4344 49.7112C28.7384 48.32 28.7384 48.32 28.0608 47.6416C27.5 47.0808 27.2776 46.4752 27.4648 46.0232C27.6 45.6968 27.92 45.5096 28.3432 45.5096C29.3168 45.5096 30.1184 45.6784 31.5736 47.8608C32.2448 48.8672 33.7144 48.964 34.928 48.8352C35.112 48.0528 35.5072 47.3512 36.0664 46.792C31.8096 46.6176 28.4 43.1 28.4 38.8C28.4 36.8464 29.1128 34.976 30.4104 33.5096C30.1656 32.132 30.324 30.5008 30.8616 28.8896C30.916 28.7264 31.0688 28.616 31.2408 28.616C33.9264 28.616 35.9856 30.344 36.4824 30.8H43.5656C44.0624 30.344 46.1216 28.616 48.8072 28.616C48.9792 28.616 49.132 28.7264 49.1864 28.8896C49.7296 30.5192 49.884 32.1664 49.6272 33.5536C50.9 35.0144 51.5992 36.8704 51.5992 38.8008C51.5992 43.1008 48.1888 46.6192 43.9312 46.7936C44.732 47.5912 45.1992 48.6768 45.1992 49.8288V54.4816C45.1992 54.7952 45.1576 55.1216 45.0728 55.4784C45.0384 55.6264 44.9224 55.7408 44.7752 55.7752C42.8656 56.224 41.1352 56.3888 39.6256 56.3888ZM35.6816 55.172C37.6112 55.6016 40.604 55.892 44.3456 55.0536C44.3816 54.8512 44.4 54.6624 44.4 54.4816V49.8288C44.4 48.5512 43.6912 47.3728 42.5504 46.752C42.3896 46.6648 42.3088 46.4792 42.3536 46.3016C42.3984 46.124 42.5584 46 42.7408 46H43.6C47.5696 46 50.8 42.7704 50.8 38.8C50.8 37.0024 50.1256 35.2768 48.9016 33.9408C48.8136 33.8448 48.7784 33.712 48.8056 33.5856C49.0704 32.372 48.9672 30.904 48.5176 29.424C46.2216 29.5464 44.4392 31.0832 44.084 31.4112C44.0112 31.532 43.888 31.608 43.7408 31.608C43.7352 31.608 43.664 31.6032 43.6584 31.6032L36.4 31.6C36.2784 31.6 36.1344 31.5464 36.0464 31.4552L36.0296 31.472C36.0096 31.4528 34.0792 29.56 31.5312 29.4232C31.0856 30.888 30.9792 32.3424 31.2328 33.5464C31.26 33.6736 31.2224 33.8064 31.1336 33.9016C29.8864 35.2416 29.2 36.9816 29.2 38.8C29.2 42.7704 32.4304 46 36.4 46H37.2584C37.4416 46 37.6008 46.124 37.6456 46.3016C37.6912 46.4792 37.6104 46.664 37.4488 46.752C36.4848 47.2752 35.832 48.1912 35.6584 49.2632C35.6296 49.4376 35.492 49.572 35.3168 49.5952C33.1856 49.8816 31.6624 49.4368 30.908 48.3064C29.5776 46.3112 28.9784 46.3112 28.3432 46.3112C28.2336 46.3112 28.1992 46.3368 28.1984 46.3368C28.1784 46.388 28.2328 46.6848 28.6256 47.0776C29.396 47.848 29.424 47.904 30.1496 49.3552C30.4448 49.944 31.6784 51.8296 35.136 51.2688C35.2536 51.252 35.3696 51.284 35.4592 51.3592C35.548 51.436 35.6 51.5464 35.6 51.664V54.4824C35.6 54.6976 35.6264 54.9208 35.6816 55.172Z" fill="#472B29"/>
<path d="M48.3496 41.0896C47.6296 42.6848 46.0488 44.0112 43.2664 44.2336L48.3496 41.0896Z" fill="#FEFDEF"/>
<path d="M43.2664 44.4336C43.1632 44.4336 43.076 44.3536 43.0672 44.2496C43.0584 44.1392 43.14 44.0432 43.2504 44.0344C46.2944 43.7904 47.604 42.2528 48.1672 41.0072C48.2136 40.9056 48.3312 40.8608 48.432 40.9072C48.532 40.9528 48.5776 41.0704 48.532 41.1712C47.6736 43.0728 45.8096 44.2304 43.2824 44.4328C43.2776 44.4336 43.272 44.4336 43.2664 44.4336Z" fill="#472B29"/>
<path d="M48.7672 37.928C48.856 38.5304 48.8544 39.1696 48.7432 39.8016L48.7672 37.928Z" fill="#FEFDEF"/>
<path d="M48.744 40.0016C48.732 40.0016 48.7208 40.0008 48.7088 39.9984C48.6 39.98 48.5272 39.876 48.5464 39.7672C48.6496 39.18 48.6576 38.5536 48.5696 37.9568C48.5528 37.848 48.6288 37.7456 48.7376 37.7304C48.8472 37.7144 48.9488 37.7888 48.9648 37.8992C49.0608 38.5464 49.052 39.1984 48.94 39.836C48.924 39.9336 48.8392 40.0016 48.744 40.0016Z" fill="#472B29"/>
<path d="M47.2664 35.1C47.7728 35.4608 48.1832 36.0432 48.4568 36.744L47.2664 35.1Z" fill="#FEFDEF"/>
<path d="M48.4568 36.9448C48.3768 36.9448 48.3016 36.896 48.2704 36.8176C48.0032 36.1328 47.616 35.5952 47.1504 35.264C47.0608 35.2 47.0392 35.0752 47.1032 34.9848C47.168 34.8944 47.292 34.8744 47.3824 34.9368C47.912 35.3144 48.348 35.9144 48.6432 36.672C48.6832 36.7752 48.632 36.8904 48.5296 36.9312C48.5056 36.94 48.4816 36.9448 48.4568 36.9448Z" fill="#472B29"/>
</svg>
