<svg width="844" height="543" viewBox="0 0 844 543" fill="none" xmlns="http://www.w3.org/2000/svg">
<path d="M90.5168 110.099C211.737 57.6545 284.767 30.6464 452.094 0H479.352C506.611 -1.17071e-05 765.327 125.367 820.486 186.439C889.434 262.78 784.809 366.357 784.809 366.357C784.809 366.357 558.723 458.425 424.835 486.43C290.948 514.434 142.629 408.555 35.9996 310.348C-49.3037 231.783 36.8014 144.113 90.5168 110.099Z" fill="#B3AEEA"/>
<g clip-path="url(#clip0)">
<path d="M381.698 32.9999C369.907 32.9764 358.223 35.6002 347.295 40.726C346.855 40.9348 346.413 41.1446 345.971 41.3592C329.363 49.4746 315.192 63.0857 305.235 80.4866C295.278 97.8875 289.979 118.304 290 139.178V255.037C290.001 256.261 290.421 257.434 291.169 258.299C291.916 259.164 292.929 259.651 293.986 259.652L294.065 259.66C370.886 275.814 445.569 284 516.101 284C517.158 284 518.215 283.998 519.27 283.994C588.602 283.75 656.11 275.564 719.921 259.664L720.014 259.652C721.071 259.651 722.084 259.164 722.831 258.299C723.578 257.434 723.999 256.261 724 255.037V37.615C723.999 36.3914 723.578 35.2183 722.831 34.3531C722.084 33.4879 721.071 33.0013 720.014 32.9999L381.698 32.9999Z" fill="#FFD32A"/>
<path d="M620.283 125.401C619.592 125.414 618.933 125.741 618.448 126.311C617.964 126.882 617.692 127.65 617.692 128.45C617.692 129.25 617.964 130.018 618.448 130.588C618.933 131.159 619.592 131.486 620.283 131.499H686.306C686.652 131.506 686.996 131.434 687.318 131.287C687.64 131.14 687.934 130.921 688.183 130.642C688.432 130.364 688.631 130.031 688.768 129.664C688.906 129.296 688.98 128.901 688.986 128.5C688.991 128.099 688.929 127.701 688.802 127.328C688.674 126.956 688.485 126.616 688.244 126.328C688.003 126.04 687.716 125.81 687.398 125.651C687.08 125.492 686.739 125.407 686.393 125.401C686.364 125.4 686.335 125.4 686.306 125.401H620.283Z" fill="#3F3D56"/>
<path d="M701.279 124.552C701.231 124.607 701.193 124.674 701.167 124.746C701.14 124.819 701.127 124.897 701.127 124.976C701.127 125.055 701.14 125.133 701.167 125.206C701.193 125.278 701.231 125.345 701.279 125.4L703.503 127.976H698.018C697.881 127.976 697.749 128.039 697.652 128.152C697.555 128.264 697.5 128.417 697.5 128.576C697.5 128.735 697.555 128.888 697.652 129C697.749 129.113 697.881 129.176 698.018 129.176H703.503L701.279 131.752C701.231 131.807 701.193 131.873 701.167 131.946C701.14 132.019 701.127 132.097 701.127 132.176C701.127 132.255 701.14 132.333 701.167 132.405C701.193 132.478 701.231 132.544 701.279 132.6C701.327 132.656 701.384 132.7 701.447 132.73C701.51 132.76 701.577 132.776 701.645 132.776C701.713 132.776 701.781 132.76 701.844 132.73C701.906 132.7 701.964 132.656 702.012 132.6L705.121 129C705.218 128.888 705.272 128.735 705.272 128.576C705.272 128.417 705.218 128.264 705.121 128.152L702.012 124.552C701.964 124.496 701.906 124.452 701.844 124.422C701.781 124.392 701.713 124.376 701.645 124.376C701.577 124.376 701.51 124.392 701.447 124.422C701.384 124.452 701.327 124.496 701.279 124.552Z" fill="white"/>
<path d="M605.282 124.552C605.33 124.607 605.368 124.674 605.394 124.746C605.421 124.819 605.434 124.897 605.434 124.976C605.434 125.055 605.421 125.133 605.394 125.206C605.368 125.278 605.33 125.345 605.282 125.4L603.058 127.976H608.543C608.611 127.976 608.679 127.991 608.742 128.021C608.805 128.051 608.862 128.095 608.91 128.151C608.959 128.207 608.997 128.273 609.023 128.346C609.049 128.419 609.063 128.497 609.063 128.576C609.063 128.655 609.049 128.733 609.023 128.806C608.997 128.879 608.959 128.945 608.91 129.001C608.862 129.057 608.805 129.101 608.742 129.131C608.679 129.161 608.611 129.176 608.543 129.176H603.058L605.282 131.752C605.379 131.864 605.434 132.017 605.434 132.176C605.434 132.335 605.379 132.488 605.282 132.6C605.185 132.713 605.053 132.776 604.916 132.776C604.778 132.776 604.647 132.713 604.549 132.6L601.44 129C601.343 128.888 601.289 128.735 601.289 128.576C601.289 128.417 601.343 128.264 601.44 128.152L604.549 124.552C604.597 124.496 604.655 124.452 604.717 124.422C604.78 124.392 604.848 124.376 604.916 124.376C604.984 124.376 605.051 124.392 605.114 124.422C605.177 124.452 605.234 124.496 605.282 124.552Z" fill="white"/>
<g opacity="0.4">
<path opacity="0.4" d="M622.949 62.116C624.512 62.116 625.779 60.649 625.779 58.8394C625.779 57.0297 624.512 55.5627 622.949 55.5627C621.386 55.5627 620.119 57.0297 620.119 58.8394C620.119 60.649 621.386 62.116 622.949 62.116Z" fill="white"/>
<path opacity="0.4" d="M634.74 62.116C636.303 62.116 637.57 60.649 637.57 58.8394C637.57 57.0297 636.303 55.5627 634.74 55.5627C633.177 55.5627 631.91 57.0297 631.91 58.8394C631.91 60.649 633.177 62.116 634.74 62.116Z" fill="white"/>
<path opacity="0.4" d="M646.531 62.116C648.093 62.116 649.36 60.649 649.36 58.8394C649.36 57.0297 648.093 55.5627 646.531 55.5627C644.968 55.5627 643.701 57.0297 643.701 58.8394C643.701 60.649 644.968 62.116 646.531 62.116Z" fill="white"/>
<path opacity="0.4" d="M658.321 62.116C659.884 62.116 661.151 60.649 661.151 58.8394C661.151 57.0297 659.884 55.5627 658.321 55.5627C656.759 55.5627 655.492 57.0297 655.492 58.8394C655.492 60.649 656.759 62.116 658.321 62.116Z" fill="white"/>
<path opacity="0.4" d="M670.112 62.116C671.675 62.116 672.942 60.649 672.942 58.8394C672.942 57.0297 671.675 55.5627 670.112 55.5627C668.55 55.5627 667.283 57.0297 667.283 58.8394C667.283 60.649 668.55 62.116 670.112 62.116Z" fill="white"/>
<path opacity="0.4" d="M681.903 62.116C683.466 62.116 684.733 60.649 684.733 58.8394C684.733 57.0297 683.466 55.5627 681.903 55.5627C680.34 55.5627 679.073 57.0297 679.073 58.8394C679.073 60.649 680.34 62.116 681.903 62.116Z" fill="white"/>
<path opacity="0.4" d="M693.694 62.116C695.257 62.116 696.524 60.649 696.524 58.8394C696.524 57.0297 695.257 55.5627 693.694 55.5627C692.131 55.5627 690.864 57.0297 690.864 58.8394C690.864 60.649 692.131 62.116 693.694 62.116Z" fill="white"/>
<path opacity="0.4" d="M622.949 72.4921C624.512 72.4921 625.779 71.0251 625.779 69.2154C625.779 67.4058 624.512 65.9388 622.949 65.9388C621.386 65.9388 620.119 67.4058 620.119 69.2154C620.119 71.0251 621.386 72.4921 622.949 72.4921Z" fill="white"/>
<path opacity="0.4" d="M634.74 72.4921C636.303 72.4921 637.57 71.0251 637.57 69.2154C637.57 67.4058 636.303 65.9388 634.74 65.9388C633.177 65.9388 631.91 67.4058 631.91 69.2154C631.91 71.0251 633.177 72.4921 634.74 72.4921Z" fill="white"/>
<path opacity="0.4" d="M646.531 72.4921C648.093 72.4921 649.36 71.0251 649.36 69.2154C649.36 67.4058 648.093 65.9388 646.531 65.9388C644.968 65.9388 643.701 67.4058 643.701 69.2154C643.701 71.0251 644.968 72.4921 646.531 72.4921Z" fill="white"/>
<path opacity="0.4" d="M658.321 72.4921C659.884 72.4921 661.151 71.0251 661.151 69.2154C661.151 67.4058 659.884 65.9388 658.321 65.9388C656.759 65.9388 655.492 67.4058 655.492 69.2154C655.492 71.0251 656.759 72.4921 658.321 72.4921Z" fill="white"/>
<path opacity="0.4" d="M670.112 72.4921C671.675 72.4921 672.942 71.0251 672.942 69.2154C672.942 67.4058 671.675 65.9388 670.112 65.9388C668.55 65.9388 667.283 67.4058 667.283 69.2154C667.283 71.0251 668.55 72.4921 670.112 72.4921Z" fill="white"/>
<path opacity="0.4" d="M681.903 72.4921C683.466 72.4921 684.733 71.0251 684.733 69.2154C684.733 67.4058 683.466 65.9388 681.903 65.9388C680.34 65.9388 679.073 67.4058 679.073 69.2154C679.073 71.0251 680.34 72.4921 681.903 72.4921Z" fill="white"/>
<path opacity="0.4" d="M693.694 72.4921C695.257 72.4921 696.524 71.0251 696.524 69.2154C696.524 67.4058 695.257 65.9388 693.694 65.9388C692.131 65.9388 690.864 67.4058 690.864 69.2154C690.864 71.0251 692.131 72.4921 693.694 72.4921Z" fill="white"/>
<path opacity="0.4" d="M622.949 82.8683C624.512 82.8683 625.779 81.4013 625.779 79.5916C625.779 77.782 624.512 76.3149 622.949 76.3149C621.386 76.3149 620.119 77.782 620.119 79.5916C620.119 81.4013 621.386 82.8683 622.949 82.8683Z" fill="white"/>
<path opacity="0.4" d="M634.74 82.8683C636.303 82.8683 637.57 81.4013 637.57 79.5916C637.57 77.782 636.303 76.3149 634.74 76.3149C633.177 76.3149 631.91 77.782 631.91 79.5916C631.91 81.4013 633.177 82.8683 634.74 82.8683Z" fill="white"/>
<path opacity="0.4" d="M646.531 82.8683C648.093 82.8683 649.36 81.4013 649.36 79.5916C649.36 77.782 648.093 76.3149 646.531 76.3149C644.968 76.3149 643.701 77.782 643.701 79.5916C643.701 81.4013 644.968 82.8683 646.531 82.8683Z" fill="white"/>
<path opacity="0.4" d="M658.321 82.8683C659.884 82.8683 661.151 81.4013 661.151 79.5916C661.151 77.782 659.884 76.3149 658.321 76.3149C656.759 76.3149 655.492 77.782 655.492 79.5916C655.492 81.4013 656.759 82.8683 658.321 82.8683Z" fill="white"/>
<path opacity="0.4" d="M670.112 82.8683C671.675 82.8683 672.942 81.4013 672.942 79.5916C672.942 77.782 671.675 76.3149 670.112 76.3149C668.55 76.3149 667.283 77.782 667.283 79.5916C667.283 81.4013 668.55 82.8683 670.112 82.8683Z" fill="white"/>
<path opacity="0.4" d="M681.903 82.8683C683.466 82.8683 684.733 81.4013 684.733 79.5916C684.733 77.782 683.466 76.3149 681.903 76.3149C680.34 76.3149 679.073 77.782 679.073 79.5916C679.073 81.4013 680.34 82.8683 681.903 82.8683Z" fill="white"/>
<path opacity="0.4" d="M693.694 82.8683C695.257 82.8683 696.524 81.4013 696.524 79.5916C696.524 77.782 695.257 76.3149 693.694 76.3149C692.131 76.3149 690.864 77.782 690.864 79.5916C690.864 81.4013 692.131 82.8683 693.694 82.8683Z" fill="white"/>
<path opacity="0.4" d="M622.949 93.2444C624.512 93.2444 625.779 91.7774 625.779 89.9677C625.779 88.1581 624.512 86.691 622.949 86.691C621.386 86.691 620.119 88.1581 620.119 89.9677C620.119 91.7774 621.386 93.2444 622.949 93.2444Z" fill="white"/>
<path opacity="0.4" d="M634.74 93.2444C636.303 93.2444 637.57 91.7774 637.57 89.9677C637.57 88.1581 636.303 86.691 634.74 86.691C633.177 86.691 631.91 88.1581 631.91 89.9677C631.91 91.7774 633.177 93.2444 634.74 93.2444Z" fill="white"/>
<path opacity="0.4" d="M622.949 103.62C624.512 103.62 625.779 102.153 625.779 100.344C625.779 98.5342 624.512 97.0671 622.949 97.0671C621.386 97.0671 620.119 98.5342 620.119 100.344C620.119 102.153 621.386 103.62 622.949 103.62Z" fill="white"/>
<path opacity="0.4" d="M634.74 103.62C636.303 103.62 637.57 102.153 637.57 100.344C637.57 98.5342 636.303 97.0671 634.74 97.0671C633.177 97.0671 631.91 98.5342 631.91 100.344C631.91 102.153 633.177 103.62 634.74 103.62Z" fill="white"/>
<path opacity="0.4" d="M646.531 103.62C648.093 103.62 649.36 102.153 649.36 100.344C649.36 98.5342 648.093 97.0671 646.531 97.0671C644.968 97.0671 643.701 98.5342 643.701 100.344C643.701 102.153 644.968 103.62 646.531 103.62Z" fill="white"/>
<path opacity="0.4" d="M646.531 93.2444C648.093 93.2444 649.36 91.7774 649.36 89.9677C649.36 88.1581 648.093 86.691 646.531 86.691C644.968 86.691 643.701 88.1581 643.701 89.9677C643.701 91.7774 644.968 93.2444 646.531 93.2444Z" fill="white"/>
<path opacity="0.4" d="M658.321 93.2444C659.884 93.2444 661.151 91.7774 661.151 89.9677C661.151 88.1581 659.884 86.691 658.321 86.691C656.759 86.691 655.492 88.1581 655.492 89.9677C655.492 91.7774 656.759 93.2444 658.321 93.2444Z" fill="white"/>
<path opacity="0.4" d="M670.112 93.2444C671.675 93.2444 672.942 91.7774 672.942 89.9677C672.942 88.1581 671.675 86.691 670.112 86.691C668.55 86.691 667.283 88.1581 667.283 89.9677C667.283 91.7774 668.55 93.2444 670.112 93.2444Z" fill="white"/>
<path opacity="0.4" d="M681.903 93.2444C683.466 93.2444 684.733 91.7774 684.733 89.9677C684.733 88.1581 683.466 86.691 681.903 86.691C680.34 86.691 679.073 88.1581 679.073 89.9677C679.073 91.7774 680.34 93.2444 681.903 93.2444Z" fill="white"/>
<path opacity="0.4" d="M693.694 93.2444C695.257 93.2444 696.524 91.7774 696.524 89.9677C696.524 88.1581 695.257 86.691 693.694 86.691C692.131 86.691 690.864 88.1581 690.864 89.9677C690.864 91.7774 692.131 93.2444 693.694 93.2444Z" fill="white"/>
</g>
<path d="M582.235 220.356C579.169 220.356 576.172 219.447 573.623 217.744C571.074 216.041 569.088 213.62 567.915 210.788C566.741 207.956 566.434 204.839 567.032 201.833C567.631 198.826 569.107 196.064 571.275 193.896C573.442 191.729 576.204 190.252 579.211 189.654C582.217 189.056 585.334 189.363 588.166 190.536C590.998 191.709 593.419 193.696 595.122 196.245C596.826 198.794 597.735 201.791 597.735 204.856C597.73 208.966 596.095 212.906 593.19 215.811C590.284 218.717 586.344 220.352 582.235 220.356ZM582.235 190.235C579.343 190.235 576.516 191.093 574.112 192.699C571.707 194.306 569.833 196.59 568.727 199.261C567.62 201.933 567.33 204.873 567.894 207.709C568.459 210.545 569.851 213.15 571.896 215.195C573.941 217.24 576.546 218.632 579.382 219.197C582.218 219.761 585.158 219.471 587.83 218.365C590.502 217.258 592.785 215.384 594.392 212.98C595.998 210.575 596.856 207.748 596.856 204.856C596.851 200.98 595.31 197.264 592.569 194.523C589.827 191.782 586.111 190.24 582.235 190.235Z" fill="#3F3D56"/>
<path d="M587.6 203.6H583.4V199.4C583.4 199.029 583.253 198.673 582.99 198.41C582.727 198.147 582.371 198 582 198C581.629 198 581.273 198.147 581.01 198.41C580.748 198.673 580.6 199.029 580.6 199.4V203.6H576.4C576.029 203.6 575.673 203.747 575.41 204.01C575.147 204.273 575 204.629 575 205C575 205.371 575.147 205.727 575.41 205.99C575.673 206.252 576.029 206.4 576.4 206.4H580.6V210.6C580.6 210.971 580.748 211.327 581.01 211.59C581.273 211.852 581.629 212 582 212C582.371 212 582.727 211.852 582.99 211.59C583.253 211.327 583.4 210.971 583.4 210.6V206.4H587.6C587.971 206.4 588.327 206.252 588.59 205.99C588.853 205.727 589 205.371 589 205C589 204.629 588.853 204.273 588.59 204.01C588.327 203.747 587.971 203.6 587.6 203.6Z" fill="white"/>
<g opacity="0.4">
<path opacity="0.4" d="M313.925 227.752C315.154 227.752 316.15 226.598 316.15 225.176C316.15 223.753 315.154 222.599 313.925 222.599C312.696 222.599 311.7 223.753 311.7 225.176C311.7 226.598 312.696 227.752 313.925 227.752Z" fill="white"/>
<path opacity="0.4" d="M313.925 217.018C315.154 217.018 316.15 215.864 316.15 214.441C316.15 213.019 315.154 211.865 313.925 211.865C312.696 211.865 311.7 213.019 311.7 214.441C311.7 215.864 312.696 217.018 313.925 217.018Z" fill="white"/>
<path opacity="0.4" d="M313.925 206.283C315.154 206.283 316.15 205.13 316.15 203.707C316.15 202.284 315.154 201.131 313.925 201.131C312.696 201.131 311.7 202.284 311.7 203.707C311.7 205.13 312.696 206.283 313.925 206.283Z" fill="white"/>
<path opacity="0.4" d="M313.925 195.549C315.154 195.549 316.15 194.396 316.15 192.973C316.15 191.55 315.154 190.397 313.925 190.397C312.696 190.397 311.7 191.55 311.7 192.973C311.7 194.396 312.696 195.549 313.925 195.549Z" fill="white"/>
<path opacity="0.4" d="M313.925 184.815C315.154 184.815 316.15 183.662 316.15 182.239C316.15 180.816 315.154 179.663 313.925 179.663C312.696 179.663 311.7 180.816 311.7 182.239C311.7 183.662 312.696 184.815 313.925 184.815Z" fill="white"/>
<path opacity="0.4" d="M313.925 174.081C315.154 174.081 316.15 172.927 316.15 171.505C316.15 170.082 315.154 168.928 313.925 168.928C312.696 168.928 311.7 170.082 311.7 171.505C311.7 172.927 312.696 174.081 313.925 174.081Z" fill="white"/>
<path opacity="0.4" d="M313.925 163.347C315.154 163.347 316.15 162.193 316.15 160.77C316.15 159.348 315.154 158.194 313.925 158.194C312.696 158.194 311.7 159.348 311.7 160.77C311.7 162.193 312.696 163.347 313.925 163.347Z" fill="white"/>
<path opacity="0.4" d="M320.97 227.752C322.199 227.752 323.195 226.598 323.195 225.176C323.195 223.753 322.199 222.599 320.97 222.599C319.742 222.599 318.745 223.753 318.745 225.176C318.745 226.598 319.742 227.752 320.97 227.752Z" fill="white"/>
<path opacity="0.4" d="M320.97 217.018C322.199 217.018 323.195 215.864 323.195 214.441C323.195 213.019 322.199 211.865 320.97 211.865C319.742 211.865 318.745 213.019 318.745 214.441C318.745 215.864 319.742 217.018 320.97 217.018Z" fill="white"/>
<path opacity="0.4" d="M320.97 206.283C322.199 206.283 323.195 205.13 323.195 203.707C323.195 202.284 322.199 201.131 320.97 201.131C319.742 201.131 318.745 202.284 318.745 203.707C318.745 205.13 319.742 206.283 320.97 206.283Z" fill="white"/>
<path opacity="0.4" d="M320.97 195.549C322.199 195.549 323.195 194.396 323.195 192.973C323.195 191.55 322.199 190.397 320.97 190.397C319.742 190.397 318.745 191.55 318.745 192.973C318.745 194.396 319.742 195.549 320.97 195.549Z" fill="white"/>
<path opacity="0.4" d="M320.97 184.815C322.199 184.815 323.195 183.662 323.195 182.239C323.195 180.816 322.199 179.663 320.97 179.663C319.742 179.663 318.745 180.816 318.745 182.239C318.745 183.662 319.742 184.815 320.97 184.815Z" fill="white"/>
<path opacity="0.4" d="M320.97 174.081C322.199 174.081 323.195 172.927 323.195 171.505C323.195 170.082 322.199 168.928 320.97 168.928C319.742 168.928 318.745 170.082 318.745 171.505C318.745 172.927 319.742 174.081 320.97 174.081Z" fill="white"/>
<path opacity="0.4" d="M320.97 163.347C322.199 163.347 323.195 162.193 323.195 160.77C323.195 159.348 322.199 158.194 320.97 158.194C319.742 158.194 318.745 159.348 318.745 160.77C318.745 162.193 319.742 163.347 320.97 163.347Z" fill="white"/>
<path opacity="0.4" d="M328.016 227.752C329.245 227.752 330.241 226.598 330.241 225.176C330.241 223.753 329.245 222.599 328.016 222.599C326.787 222.599 325.791 223.753 325.791 225.176C325.791 226.598 326.787 227.752 328.016 227.752Z" fill="white"/>
<path opacity="0.4" d="M328.016 217.018C329.245 217.018 330.241 215.864 330.241 214.441C330.241 213.019 329.245 211.865 328.016 211.865C326.787 211.865 325.791 213.019 325.791 214.441C325.791 215.864 326.787 217.018 328.016 217.018Z" fill="white"/>
<path opacity="0.4" d="M328.016 206.283C329.245 206.283 330.241 205.13 330.241 203.707C330.241 202.284 329.245 201.131 328.016 201.131C326.787 201.131 325.791 202.284 325.791 203.707C325.791 205.13 326.787 206.283 328.016 206.283Z" fill="white"/>
<path opacity="0.4" d="M328.016 195.549C329.245 195.549 330.241 194.396 330.241 192.973C330.241 191.55 329.245 190.397 328.016 190.397C326.787 190.397 325.791 191.55 325.791 192.973C325.791 194.396 326.787 195.549 328.016 195.549Z" fill="white"/>
<path opacity="0.4" d="M328.016 184.815C329.245 184.815 330.241 183.662 330.241 182.239C330.241 180.816 329.245 179.663 328.016 179.663C326.787 179.663 325.791 180.816 325.791 182.239C325.791 183.662 326.787 184.815 328.016 184.815Z" fill="white"/>
<path opacity="0.4" d="M328.016 174.081C329.245 174.081 330.241 172.927 330.241 171.505C330.241 170.082 329.245 168.928 328.016 168.928C326.787 168.928 325.791 170.082 325.791 171.505C325.791 172.927 326.787 174.081 328.016 174.081Z" fill="white"/>
<path opacity="0.4" d="M328.016 163.347C329.245 163.347 330.241 162.193 330.241 160.77C330.241 159.348 329.245 158.194 328.016 158.194C326.787 158.194 325.791 159.348 325.791 160.77C325.791 162.193 326.787 163.347 328.016 163.347Z" fill="white"/>
<path opacity="0.4" d="M335.061 227.752C336.29 227.752 337.286 226.598 337.286 225.176C337.286 223.753 336.29 222.599 335.061 222.599C333.832 222.599 332.836 223.753 332.836 225.176C332.836 226.598 333.832 227.752 335.061 227.752Z" fill="white"/>
<path opacity="0.4" d="M335.061 217.018C336.29 217.018 337.286 215.864 337.286 214.441C337.286 213.019 336.29 211.865 335.061 211.865C333.832 211.865 332.836 213.019 332.836 214.441C332.836 215.864 333.832 217.018 335.061 217.018Z" fill="white"/>
<path opacity="0.4" d="M342.107 227.752C343.335 227.752 344.331 226.598 344.331 225.176C344.331 223.753 343.335 222.599 342.107 222.599C340.878 222.599 339.882 223.753 339.882 225.176C339.882 226.598 340.878 227.752 342.107 227.752Z" fill="white"/>
<path opacity="0.4" d="M342.107 217.018C343.335 217.018 344.331 215.864 344.331 214.441C344.331 213.019 343.335 211.865 342.107 211.865C340.878 211.865 339.882 213.019 339.882 214.441C339.882 215.864 340.878 217.018 342.107 217.018Z" fill="white"/>
<path opacity="0.4" d="M342.107 206.283C343.335 206.283 344.331 205.13 344.331 203.707C344.331 202.284 343.335 201.131 342.107 201.131C340.878 201.131 339.882 202.284 339.882 203.707C339.882 205.13 340.878 206.283 342.107 206.283Z" fill="white"/>
<path opacity="0.4" d="M335.061 206.283C336.29 206.283 337.286 205.13 337.286 203.707C337.286 202.284 336.29 201.131 335.061 201.131C333.832 201.131 332.836 202.284 332.836 203.707C332.836 205.13 333.832 206.283 335.061 206.283Z" fill="white"/>
<path opacity="0.4" d="M335.061 195.549C336.29 195.549 337.286 194.396 337.286 192.973C337.286 191.55 336.29 190.397 335.061 190.397C333.832 190.397 332.836 191.55 332.836 192.973C332.836 194.396 333.832 195.549 335.061 195.549Z" fill="white"/>
<path opacity="0.4" d="M335.061 184.815C336.29 184.815 337.286 183.662 337.286 182.239C337.286 180.816 336.29 179.663 335.061 179.663C333.832 179.663 332.836 180.816 332.836 182.239C332.836 183.662 333.832 184.815 335.061 184.815Z" fill="white"/>
<path opacity="0.4" d="M335.061 174.081C336.29 174.081 337.286 172.927 337.286 171.505C337.286 170.082 336.29 168.928 335.061 168.928C333.832 168.928 332.836 170.082 332.836 171.505C332.836 172.927 333.832 174.081 335.061 174.081Z" fill="white"/>
<path opacity="0.4" d="M335.061 163.347C336.29 163.347 337.286 162.193 337.286 160.77C337.286 159.348 336.29 158.194 335.061 158.194C333.832 158.194 332.836 159.348 332.836 160.77C332.836 162.193 333.832 163.347 335.061 163.347Z" fill="white"/>
</g>
<rect x="361" y="42" width="156" height="158" fill="#36404D"/>
<path d="M510.281 49.9232H362.481C361.755 49.924 361.059 50.2583 360.546 50.8526C360.032 51.447 359.744 52.2529 359.743 53.0934V199.435C359.744 200.275 360.032 201.081 360.546 201.675C361.059 202.27 361.755 202.604 362.481 202.605H510.281C511.007 202.604 511.703 202.27 512.216 201.675C512.729 201.081 513.018 200.275 513.019 199.435V53.0934C513.018 52.2529 512.729 51.447 512.216 50.8526C511.703 50.2583 511.007 49.924 510.281 49.9232ZM511.922 199.435C511.921 199.939 511.749 200.423 511.441 200.78C511.134 201.137 510.716 201.339 510.281 201.34H362.481C362.045 201.34 361.627 201.138 361.32 200.781C361.012 200.424 360.839 199.939 360.84 199.435V53.0934C360.839 52.5888 361.012 52.1045 361.32 51.7471C361.627 51.3897 362.045 51.1885 362.481 51.1877H510.281C510.716 51.1895 511.134 51.391 511.441 51.7482C511.749 52.1054 511.921 52.5891 511.922 53.0934V199.435Z" fill="#3F3D56"/>
<path d="M396.597 176.584C396.597 176.81 396.592 177.035 396.581 177.255C396.432 180.558 395.194 183.668 393.123 185.945C391.051 188.221 388.304 189.491 385.448 189.491C382.592 189.491 379.844 188.221 377.773 185.945C375.701 183.668 374.463 180.558 374.314 177.255C374.304 177.035 374.299 176.81 374.299 176.584C374.298 174.888 374.586 173.209 375.146 171.641C375.705 170.074 376.526 168.65 377.562 167.45C378.597 166.251 379.827 165.299 381.18 164.65C382.533 164.001 383.983 163.666 385.448 163.666C386.913 163.666 388.363 164.001 389.716 164.65C391.069 165.299 392.298 166.251 393.334 167.45C394.369 168.65 395.19 170.074 395.75 171.641C396.31 173.209 396.598 174.888 396.597 176.584Z" fill="white"/>
<rect x="397" y="66" width="155" height="81" rx="5" fill="#F2F2F2"/>
<path d="M498.796 167.976H411.194C410.701 167.977 410.229 168.204 409.881 168.607C409.533 169.011 409.338 169.558 409.338 170.128C409.338 170.698 409.533 171.245 409.881 171.648C410.229 172.052 410.701 172.279 411.194 172.28H498.796C499.289 172.279 499.761 172.052 500.108 171.648C500.456 171.245 500.652 170.698 500.652 170.128C500.652 169.558 500.456 169.011 500.108 168.607C499.761 168.204 499.289 167.977 498.796 167.976Z" fill="#3F3D56"/>
<path d="M448.888 180.888H411.194C410.701 180.888 410.229 181.115 409.881 181.518C409.533 181.921 409.338 182.467 409.338 183.037C409.338 183.607 409.533 184.154 409.881 184.557C410.229 184.96 410.701 185.186 411.194 185.186H448.888C449.381 185.186 449.853 184.96 450.201 184.557C450.549 184.154 450.745 183.607 450.745 183.037C450.745 182.467 450.549 181.921 450.201 181.518C449.853 181.115 449.381 180.888 448.888 180.888Z" fill="white"/>
<path d="M545.395 152.778H397.596C396.592 152.776 395.63 152.314 394.92 151.492C394.21 150.67 393.811 149.556 393.81 148.393V73.2894C393.811 72.1272 394.21 71.0129 394.92 70.191C395.63 69.3692 396.592 68.9068 397.596 68.9055H545.395C546.399 68.9068 547.361 69.3692 548.071 70.191C548.78 71.0129 549.18 72.1272 549.181 73.2894V148.393C549.18 149.556 548.781 150.67 548.071 151.492C547.361 152.314 546.399 152.776 545.395 152.778ZM397.596 70.4438C396.944 70.4447 396.32 70.7448 395.859 71.2783C395.398 71.8118 395.139 72.535 395.138 73.2894V148.393C395.139 149.148 395.398 149.871 395.859 150.405C396.319 150.938 396.944 151.238 397.596 151.239H545.395C546.046 151.238 546.671 150.938 547.132 150.405C547.592 149.871 547.852 149.148 547.852 148.393V73.2894C547.852 72.535 547.592 71.8118 547.132 71.2783C546.671 70.7448 546.046 70.4447 545.395 70.4438H397.596Z" fill="white"/>
<path d="M427.695 96.2983C427.202 96.2983 426.73 96.525 426.381 96.9285C426.033 97.332 425.837 97.8793 425.837 98.45C425.837 99.0206 426.033 99.5679 426.381 99.9714C426.73 100.375 427.202 100.602 427.695 100.602H515.295C515.788 100.602 516.261 100.375 516.609 99.9714C516.958 99.5679 517.154 99.0206 517.154 98.45C517.154 97.8793 516.958 97.332 516.609 96.9285C516.261 96.525 515.788 96.2983 515.295 96.2983H427.695Z" fill="white"/>
<path d="M427.695 108.766C427.202 108.766 426.73 108.992 426.381 109.396C426.033 109.799 425.837 110.347 425.837 110.917C425.837 111.488 426.033 112.035 426.381 112.439C426.73 112.842 427.202 113.069 427.695 113.069H515.295C515.788 113.068 516.26 112.841 516.607 112.437C516.955 112.034 517.151 111.487 517.151 110.917C517.151 110.347 516.955 109.8 516.607 109.397C516.26 108.994 515.788 108.766 515.295 108.766H427.695Z" fill="white"/>
<path d="M427.695 121.082C427.202 121.082 426.73 121.308 426.381 121.712C426.033 122.115 425.837 122.663 425.837 123.233C425.837 123.804 426.033 124.351 426.381 124.755C426.73 125.158 427.202 125.385 427.695 125.385H465.39C465.882 125.384 466.354 125.157 466.702 124.753C467.05 124.35 467.245 123.803 467.245 123.233C467.245 122.663 467.05 122.116 466.702 121.713C466.354 121.31 465.882 121.082 465.39 121.082H427.695Z" fill="white"/>
<path d="M569.763 184.597L554.919 160.338L559.724 161.498C559.81 161.519 559.898 161.519 559.984 161.501C560.069 161.482 560.151 161.444 560.224 161.388C560.297 161.333 560.36 161.261 560.409 161.178C560.458 161.094 560.493 161 560.511 160.901C560.528 160.802 560.529 160.7 560.513 160.601C560.497 160.502 560.464 160.407 560.416 160.322C560.368 160.238 560.306 160.165 560.234 160.108C560.162 160.051 560.081 160.011 559.995 159.991L552.834 158.265L551.868 166.659C551.856 166.76 551.861 166.862 551.883 166.96C551.906 167.057 551.945 167.149 551.998 167.23C552.051 167.31 552.117 167.378 552.193 167.429C552.268 167.48 552.352 167.513 552.438 167.526C552.525 167.54 552.613 167.533 552.698 167.507C552.782 167.481 552.862 167.435 552.931 167.374C553 167.312 553.059 167.235 553.102 167.148C553.146 167.06 553.174 166.963 553.186 166.862L553.833 161.225L568.68 185.487C568.73 185.569 568.794 185.639 568.868 185.693C568.942 185.747 569.024 185.783 569.11 185.8C569.196 185.817 569.284 185.814 569.369 185.792C569.454 185.769 569.534 185.728 569.605 185.669C569.677 185.611 569.737 185.537 569.784 185.451C569.83 185.366 569.861 185.271 569.876 185.171C569.891 185.072 569.888 184.97 569.869 184.871C569.85 184.773 569.814 184.68 569.763 184.597V184.597Z" fill="white"/>
<path d="M489.138 255.202H383.624C383.106 255.201 382.609 254.963 382.243 254.538C381.877 254.114 381.671 253.539 381.67 252.939V222.633C381.671 222.033 381.877 221.458 382.243 221.034C382.609 220.61 383.106 220.371 383.624 220.37H489.138C489.656 220.371 490.152 220.61 490.519 221.034C490.885 221.458 491.091 222.033 491.092 222.633V252.939C491.091 253.539 490.885 254.114 490.519 254.538C490.152 254.963 489.656 255.201 489.138 255.202ZM383.624 221.275C383.313 221.276 383.015 221.419 382.795 221.673C382.576 221.928 382.452 222.273 382.452 222.633V252.939C382.452 253.299 382.576 253.644 382.795 253.899C383.015 254.153 383.313 254.296 383.624 254.297H489.138C489.449 254.296 489.747 254.153 489.966 253.899C490.186 253.644 490.31 253.299 490.31 252.939V222.633C490.31 222.273 490.186 221.928 489.966 221.673C489.747 221.419 489.449 221.276 489.138 221.275H383.624Z" fill="#3F3D56"/>
<path d="M400.019 245.839C404.414 245.839 407.978 241.713 407.978 236.623C407.978 231.533 404.414 227.407 400.019 227.407C395.623 227.407 392.059 231.533 392.059 236.623C392.059 241.713 395.623 245.839 400.019 245.839Z" fill="white"/>
<path d="M418.401 230.479C418.227 230.479 418.054 230.518 417.893 230.595C417.731 230.672 417.585 230.785 417.461 230.928C417.338 231.071 417.24 231.24 417.173 231.427C417.106 231.613 417.072 231.813 417.072 232.015C417.072 232.217 417.106 232.417 417.173 232.604C417.24 232.79 417.338 232.96 417.461 233.102C417.585 233.245 417.731 233.358 417.893 233.435C418.054 233.512 418.227 233.551 418.401 233.551H480.939C481.291 233.551 481.628 233.389 481.877 233.101C482.126 232.813 482.266 232.422 482.266 232.015C482.266 231.608 482.126 231.217 481.877 230.929C481.628 230.641 481.291 230.479 480.939 230.479H418.401Z" fill="white"/>
<path d="M418.401 239.695C418.227 239.695 418.054 239.734 417.893 239.811C417.731 239.888 417.585 240.002 417.461 240.144C417.338 240.287 417.24 240.456 417.173 240.643C417.106 240.829 417.072 241.029 417.072 241.231C417.072 241.433 417.106 241.633 417.173 241.82C417.24 242.006 417.338 242.176 417.461 242.318C417.585 242.461 417.731 242.574 417.893 242.651C418.054 242.728 418.227 242.768 418.401 242.767H445.311C445.663 242.767 446.001 242.606 446.249 242.317C446.498 242.029 446.638 241.639 446.638 241.231C446.638 240.824 446.498 240.433 446.249 240.145C446.001 239.857 445.663 239.695 445.311 239.695H418.401Z" fill="white"/>
<path d="M628.354 147.227H675.249C675.767 147.227 676.264 147.466 676.63 147.89C676.996 148.314 677.202 148.889 677.203 149.489V206.041C677.202 206.641 676.996 207.216 676.63 207.64C676.264 208.064 675.767 208.303 675.249 208.303H628.354C627.836 208.303 627.339 208.064 626.973 207.64C626.606 207.216 626.4 206.641 626.4 206.041V149.489C626.4 148.889 626.606 148.314 626.973 147.89C627.339 147.466 627.836 147.227 628.354 147.227ZM675.249 207.398C675.56 207.398 675.858 207.255 676.077 207C676.297 206.746 676.421 206.401 676.421 206.041V149.489C676.421 149.129 676.297 148.784 676.077 148.53C675.858 148.275 675.56 148.132 675.249 148.132H628.354C628.043 148.132 627.745 148.275 627.525 148.53C627.305 148.784 627.182 149.129 627.181 149.489V206.041C627.182 206.401 627.305 206.746 627.525 207C627.745 207.255 628.043 207.398 628.354 207.398H675.249Z" fill="#3F3D56"/>
<path d="M665.256 196.641C665.608 196.641 665.946 196.479 666.194 196.191C666.443 195.903 666.583 195.513 666.583 195.105C666.583 194.698 666.443 194.307 666.194 194.019C665.946 193.731 665.608 193.569 665.256 193.569H638.346C637.994 193.569 637.657 193.731 637.408 194.019C637.159 194.307 637.02 194.698 637.02 195.105C637.02 195.513 637.159 195.903 637.408 196.191C637.657 196.479 637.994 196.641 638.346 196.641H665.256Z" fill="white"/>
<path d="M665.256 187.591C665.431 187.592 665.604 187.552 665.765 187.475C665.926 187.398 666.073 187.285 666.196 187.142C666.319 187 666.417 186.83 666.484 186.644C666.551 186.457 666.585 186.257 666.585 186.055C666.585 185.853 666.551 185.653 666.484 185.467C666.417 185.28 666.319 185.111 666.196 184.968C666.073 184.825 665.926 184.712 665.765 184.635C665.604 184.558 665.431 184.519 665.256 184.519H638.346C638.172 184.519 637.999 184.558 637.838 184.635C637.676 184.712 637.53 184.825 637.407 184.968C637.283 185.111 637.185 185.28 637.118 185.467C637.052 185.653 637.017 185.853 637.017 186.055C637.017 186.257 637.052 186.457 637.118 186.644C637.185 186.83 637.283 187 637.407 187.142C637.53 187.285 637.676 187.398 637.838 187.475C637.999 187.552 638.172 187.592 638.346 187.591H665.256Z" fill="white"/>
<path d="M651.801 158.889C653.453 158.889 655.067 159.456 656.44 160.518C657.813 161.58 658.884 163.091 659.516 164.857C660.148 166.624 660.313 168.568 659.991 170.444C659.669 172.319 658.873 174.042 657.706 175.394C656.538 176.746 655.05 177.667 653.43 178.04C651.81 178.413 650.132 178.222 648.606 177.49C647.08 176.758 645.776 175.519 644.858 173.929C643.941 172.339 643.451 170.47 643.451 168.557C643.454 165.994 644.334 163.536 645.9 161.724C647.465 159.911 649.587 158.892 651.801 158.889Z" fill="white"/>
</g>
<path d="M171.031 499.825H204.902L226.551 326.467L266.355 499.825H289.209V293.101L180.549 263.361L171.031 499.825Z" fill="#2F2E41"/>
<path d="M278.926 525.475L310.682 530.798C312.801 531.052 314.946 530.548 316.67 529.392C318.394 528.235 319.563 526.515 319.935 524.59C320.228 523.068 320.007 521.501 319.301 520.097C318.595 518.694 317.437 517.52 315.983 516.734L303.485 509.981L289.209 491.122L264.621 495.474V510.569C264.621 514.218 266.073 517.743 268.705 520.485C271.336 523.228 274.969 525.002 278.926 525.475Z" fill="#D0CDE1"/>
<path d="M192.251 542.996C194.593 542.948 196.898 542.456 199.02 541.549C201.142 540.642 203.034 539.342 204.577 537.73C206.12 536.118 207.279 534.23 207.98 532.186C208.682 530.143 208.91 527.988 208.652 525.859L205.136 496.924H174.997V527.564C174.997 529.62 175.446 531.655 176.318 533.55C177.19 535.445 178.467 537.162 180.074 538.599C181.681 540.037 183.586 541.166 185.677 541.921C187.768 542.676 190.003 543.042 192.251 542.996Z" fill="#D0CDE1"/>
<path d="M228.784 105.505C245.097 105.505 258.321 93.4107 258.321 78.4917C258.321 63.5726 245.097 51.4783 228.784 51.4783C212.47 51.4783 199.246 63.5726 199.246 78.4917C199.246 93.4107 212.47 105.505 228.784 105.505Z" fill="#F9DBD2"/>
<path d="M201.964 134.249H255.897C248.466 121.947 243.759 109.626 246.379 97.2565H210.688C211.389 106.508 207.084 120.031 201.964 134.249Z" fill="#F9DBD2"/>
<path d="M182.928 267.714C214.622 290.382 249.607 301.808 289.209 297.453C272.483 243.746 267.522 190.447 283.657 137.876L250.345 124.094L205.136 121.918L177.921 129.239C174.093 130.27 170.741 132.423 168.382 135.367C166.024 138.311 164.788 141.883 164.867 145.532C165.828 190.365 170.333 232.322 182.928 267.714Z" fill="#4123E9"/>
<path d="M293.076 340.206C294.962 340.297 296.846 339.991 298.583 339.313C300.32 338.635 301.864 337.602 303.097 336.293C304.33 334.985 305.219 333.435 305.695 331.764C306.172 330.093 306.224 328.344 305.847 326.651L300.313 301.805H286.829L281.579 326.773C281.245 328.36 281.287 329.994 281.702 331.566C282.118 333.137 282.896 334.609 283.986 335.882C285.075 337.154 286.45 338.199 288.018 338.945C289.586 339.691 291.311 340.121 293.076 340.206Z" fill="#F9DBD2"/>
<path d="M201.819 303.508C203.394 302.555 204.709 301.284 205.664 299.794C206.619 298.303 207.187 296.633 207.327 294.91C207.466 293.188 207.172 291.459 206.468 289.856C205.763 288.253 204.667 286.82 203.262 285.665L182.647 268.709L171.811 276.047L183.839 298.97C184.603 300.427 185.701 301.718 187.057 302.755C188.413 303.791 189.996 304.55 191.7 304.98C193.404 305.411 195.188 305.502 196.934 305.248C198.68 304.994 200.345 304.401 201.819 303.508Z" fill="#F9DBD2"/>
<path d="M173.411 281.495L186.101 270.615L171.824 211.862L179.359 128.809C162.991 133.514 145.417 146.151 142.522 161.617L132.168 216.939L173.411 281.495Z" fill="#4123E9"/>
<path d="M282.864 301.805L303.485 303.981L298.657 163.94C298.441 157.683 296.26 151.614 292.373 146.461C288.486 141.307 283.059 137.286 276.74 134.878L269.38 132.073L271.363 197.718L282.864 301.805Z" fill="#4123E9"/>
<path d="M200.514 64.9073C203.355 60.0041 206.966 50.2319 212.701 48.4196C215.887 47.4537 219.179 46.8123 222.518 46.5071L232.267 49.9362L226.961 46.1623C227.994 46.106 229.026 46.06 230.058 46.0242L236.636 48.3379L233.271 45.9442C239.403 45.8866 245.733 46.4698 250.485 49.8838C254.536 52.7943 258.549 63.8199 259.198 68.4934C259.892 72.9643 259.649 77.5151 258.482 81.903L256.817 83.3516C256.234 82.1297 255.796 80.8542 255.51 79.5471C254.913 77.1047 253.766 74.8029 252.142 72.7883C250.518 70.7737 248.453 69.0906 246.079 67.8462L245.988 67.7995C243.194 66.3614 239.804 66.4277 236.6 66.5332L221.384 67.0339C217.723 67.1544 213.781 67.3663 210.927 69.4664C208.999 70.8847 207.844 72.9784 206.745 75.0057C205.327 77.6235 202.556 87.4972 202.556 87.4972C202.556 87.4972 200.988 85.6334 200.236 87.0206C199.031 83.4013 198.298 79.6643 198.053 75.8876C197.814 72.094 198.662 68.309 200.514 64.9073Z" fill="#2F2E41"/>
<path opacity="0.2" d="M173.015 180.309L162.703 218.027L186.101 271.55L168.255 220.929L173.015 180.309Z" fill="black"/>
<path opacity="0.2" d="M275.143 201.487L283.102 282.308L269.625 202.05L275.143 201.487Z" fill="black"/>
<defs>
<clipPath id="clip0">
<rect width="434" height="251" fill="white" transform="translate(290 33)"/>
</clipPath>
</defs>
</svg>
