<svg width="80" height="80" viewBox="0 0 80 80" fill="none" xmlns="http://www.w3.org/2000/svg">
<path d="M61.6 9.60001C61.3878 9.60001 61.1843 9.68429 61.0343 9.83432C60.8843 9.98435 60.8 10.1878 60.8 10.4C60.8 10.6122 60.8843 10.8157 61.0343 10.9657C61.1843 11.1157 61.3878 11.2 61.6 11.2C61.8122 11.2 62.0156 11.1157 62.1657 10.9657C62.3157 10.8157 62.4 10.6122 62.4 10.4C62.4 10.1878 62.3157 9.98435 62.1657 9.83432C62.0156 9.68429 61.8122 9.60001 61.6 9.60001Z" fill="#F1BC19"/>
<path d="M40 10.4C32.1496 10.4 24.6207 13.5186 19.0696 19.0696C13.5186 24.6207 10.4 32.1496 10.4 40C10.4 47.8504 13.5186 55.3793 19.0696 60.9304C24.6207 66.4814 32.1496 69.6 40 69.6C47.8504 69.6 55.3793 66.4814 60.9304 60.9304C66.4814 55.3793 69.6 47.8504 69.6 40C69.6 32.1496 66.4814 24.6207 60.9304 19.0696C55.3793 13.5186 47.8504 10.4 40 10.4Z" fill="#E6EDB7"/>
<path d="M66.4 8.79999C65.5513 8.79999 64.7374 9.13713 64.1373 9.73725C63.5372 10.3374 63.2 11.1513 63.2 12C63.2 12.8487 63.5372 13.6626 64.1373 14.2627C64.7374 14.8628 65.5513 15.2 66.4 15.2C67.2487 15.2 68.0626 14.8628 68.6628 14.2627C69.2629 13.6626 69.6 12.8487 69.6 12C69.6 11.1513 69.2629 10.3374 68.6628 9.73725C68.0626 9.13713 67.2487 8.79999 66.4 8.79999Z" fill="#F1BC19"/>
<path d="M69.6 17.6C69.1757 17.6 68.7687 17.7686 68.4686 18.0686C68.1686 18.3687 68 18.7757 68 19.2C68 19.6244 68.1686 20.0313 68.4686 20.3314C68.7687 20.6314 69.1757 20.8 69.6 20.8C70.0243 20.8 70.4313 20.6314 70.7314 20.3314C71.0314 20.0313 71.2 19.6244 71.2 19.2C71.2 18.7757 71.0314 18.3687 70.7314 18.0686C70.4313 17.7686 70.0243 17.6 69.6 17.6Z" fill="#88AE45"/>
<path d="M64.8 59.2C64.3756 59.2 63.9687 59.3686 63.6686 59.6686C63.3686 59.9687 63.2 60.3757 63.2 60.8C63.2 61.2244 63.3686 61.6313 63.6686 61.9314C63.9687 62.2314 64.3756 62.4 64.8 62.4C65.2243 62.4 65.6313 62.2314 65.9314 61.9314C66.2314 61.6313 66.4 61.2244 66.4 60.8C66.4 60.3757 66.2314 59.9687 65.9314 59.6686C65.6313 59.3686 65.2243 59.2 64.8 59.2ZM12 47.2C11.1513 47.2 10.3374 47.5372 9.73725 48.1373C9.13713 48.7374 8.79999 49.5513 8.79999 50.4C8.79999 51.2487 9.13713 52.0626 9.73725 52.6628C10.3374 53.2629 11.1513 53.6 12 53.6C12.8487 53.6 13.6626 53.2629 14.2627 52.6628C14.8628 52.0626 15.2 51.2487 15.2 50.4C15.2 49.5513 14.8628 48.7374 14.2627 48.1373C13.6626 47.5372 12.8487 47.2 12 47.2Z" fill="#FBCD59"/>
<path d="M20 68C19.5756 68 19.1687 68.1686 18.8686 68.4686C18.5686 68.7687 18.4 69.1757 18.4 69.6C18.4 70.0243 18.5686 70.4313 18.8686 70.7314C19.1687 71.0314 19.5756 71.2 20 71.2C20.4243 71.2 20.8313 71.0314 21.1314 70.7314C21.4314 70.4313 21.6 70.0243 21.6 69.6C21.6 69.1757 21.4314 68.7687 21.1314 68.4686C20.8313 68.1686 20.4243 68 20 68Z" fill="#88AE45"/>
<path d="M14.8 39.2C14.2696 39.2 13.7608 39.4107 13.3858 39.7858C13.0107 40.1609 12.8 40.6696 12.8 41.2C12.8 41.7304 13.0107 42.2392 13.3858 42.6142C13.7608 42.9893 14.2696 43.2 14.8 43.2C15.3304 43.2 15.8391 42.9893 16.2142 42.6142C16.5893 42.2392 16.8 41.7304 16.8 41.2C16.8 40.6696 16.5893 40.1609 16.2142 39.7858C15.8391 39.4107 15.3304 39.2 14.8 39.2ZM63.6 25.6C63.2817 25.6 62.9765 25.7264 62.7515 25.9515C62.5264 26.1765 62.4 26.4817 62.4 26.8C62.4 27.1183 62.5264 27.4235 62.7515 27.6485C62.9765 27.8736 63.2817 28 63.6 28C63.9183 28 64.2235 27.8736 64.4485 27.6485C64.6736 27.4235 64.8 27.1183 64.8 26.8C64.8 26.4817 64.6736 26.1765 64.4485 25.9515C64.2235 25.7264 63.9183 25.6 63.6 25.6Z" fill="white"/>
<path d="M28 57.84C24.8 57.84 22.16 55.2 22.16 52V28C22.16 24.8 24.8 22.16 28 22.16H52C55.2 22.16 57.84 24.8 57.84 28V52C57.84 55.2 55.2 57.84 52 57.84H28Z" fill="#BABCE2"/>
<path d="M52 22.72C54.88 22.72 57.28 25.12 57.28 28V52C57.28 54.88 54.88 57.28 52 57.28H28C25.12 57.28 22.72 54.88 22.72 52V28C22.72 25.12 25.12 22.72 28 22.72H52ZM52 21.6H28C24.48 21.6 21.6 24.48 21.6 28V52C21.6 55.52 24.48 58.4 28 58.4H52C55.52 58.4 58.4 55.52 58.4 52V28C58.4 24.48 55.52 21.6 52 21.6Z" fill="#472B29"/>
<path d="M54.8 38.32V39.76V51.2C54.8 53.2 53.2 54.8 51.2 54.8H28.8C26.8 54.8 25.2 53.2 25.2 51.2V28.8C25.2 26.8 26.8 25.2 28.8 25.2H49.12H51.2C53.2 25.2 54.8 26.8 54.8 28.8V31.52V33.12V33.92V34.8V37.12V38.32Z" fill="#FDFCEE"/>
<path d="M54.8 37.92C54.56 37.92 54.4 37.76 54.4 37.52V34.4C54.4 34.16 54.56 34 54.8 34C55.04 34 55.2 34.16 55.2 34.4V37.52C55.2 37.76 55.04 37.92 54.8 37.92ZM54.8 32.4C54.56 32.4 54.4 32.24 54.4 32V30.4C54.4 30.16 54.56 30 54.8 30C55.04 30 55.2 30.16 55.2 30.4V32C55.2 32.24 55.04 32.4 54.8 32.4Z" fill="#472B29"/>
<path d="M51.2 55.2H28.8C26.56 55.2 24.8 53.44 24.8 51.2V28.8C24.8 26.56 26.56 24.8 28.8 24.8H49.12C49.36 24.8 49.52 24.96 49.52 25.2C49.52 25.44 49.36 25.6 49.12 25.6H28.8C27.04 25.6 25.6 27.04 25.6 28.8V51.2C25.6 52.96 27.04 54.4 28.8 54.4H51.2C52.96 54.4 54.4 52.96 54.4 51.2V39.68C54.4 39.44 54.56 39.28 54.8 39.28C55.04 39.28 55.2 39.44 55.2 39.68V51.2C55.2 53.44 53.44 55.2 51.2 55.2Z" fill="#472B29"/>
<path d="M36.8 49.2C33.52 49.2 30.8 46.48 30.8 43.2V36.8C30.8 33.52 33.52 30.8 36.8 30.8H43.2C46.48 30.8 49.2 33.52 49.2 36.8V43.2C49.2 46.48 46.48 49.2 43.2 49.2H36.8Z" fill="#8A8DCE"/>
<path d="M43.2 31.2C46.32 31.2 48.8 33.68 48.8 36.8V43.2C48.8 46.32 46.32 48.8 43.2 48.8H36.8C33.68 48.8 31.2 46.32 31.2 43.2V36.8C31.2 33.68 33.68 31.2 36.8 31.2H43.2ZM43.2 30.4H36.8C33.28 30.4 30.4 33.28 30.4 36.8V43.2C30.4 46.72 33.28 49.6 36.8 49.6H43.2C46.72 49.6 49.6 46.72 49.6 43.2V36.8C49.6 33.28 46.72 30.4 43.2 30.4Z" fill="#472B29"/>
<path d="M40 35.6C38.8331 35.6 37.7139 36.0636 36.8887 36.8887C36.0636 37.7139 35.6 38.8331 35.6 40C35.6 41.167 36.0636 42.2861 36.8887 43.1113C37.7139 43.9364 38.8331 44.4 40 44.4C41.167 44.4 42.2861 43.9364 43.1113 43.1113C43.9364 42.2861 44.4 41.167 44.4 40C44.4 38.8331 43.9364 37.7139 43.1113 36.8887C42.2861 36.0636 41.167 35.6 40 35.6Z" fill="#FDFCEE"/>
<path d="M40 36C42.24 36 44 37.76 44 40C44 42.24 42.24 44 40 44C37.76 44 36 42.24 36 40C36 37.76 37.76 36 40 36ZM40 35.2C37.36 35.2 35.2 37.36 35.2 40C35.2 42.64 37.36 44.8 40 44.8C42.64 44.8 44.8 42.64 44.8 40C44.8 37.36 42.64 35.2 40 35.2Z" fill="#472B29"/>
<path d="M45.2 33.6C44.8817 33.6 44.5765 33.7264 44.3515 33.9515C44.1264 34.1765 44 34.4817 44 34.8C44 35.1183 44.1264 35.4235 44.3515 35.6485C44.5765 35.8736 44.8817 36 45.2 36C45.5183 36 45.8235 35.8736 46.0485 35.6485C46.2736 35.4235 46.4 35.1183 46.4 34.8C46.4 34.4817 46.2736 34.1765 46.0485 33.9515C45.8235 33.7264 45.5183 33.6 45.2 33.6Z" fill="#FDFCEE"/>
<path d="M45.2 36.4C44.32 36.4 43.6 35.68 43.6 34.8C43.6 33.92 44.32 33.2 45.2 33.2C46.08 33.2 46.8 33.92 46.8 34.8C46.8 35.68 46.08 36.4 45.2 36.4ZM45.2 34C44.72 34 44.4 34.32 44.4 34.8C44.4 35.28 44.72 35.6 45.2 35.6C45.68 35.6 46 35.28 46 34.8C46 34.32 45.68 34 45.2 34Z" fill="#472B29"/>
</svg>
