<svg width="80" height="80" viewBox="0 0 80 80" fill="none" xmlns="http://www.w3.org/2000/svg">
<path d="M10.4 21.6C9.97565 21.6 9.56869 21.7686 9.26863 22.0686C8.96857 22.3687 8.8 22.7757 8.8 23.2C8.8 23.6244 8.96857 24.0313 9.26863 24.3314C9.56869 24.6314 9.97565 24.8 10.4 24.8C10.8243 24.8 11.2313 24.6314 11.5314 24.3314C11.8314 24.0313 12 23.6244 12 23.2C12 22.7757 11.8314 22.3687 11.5314 22.0686C11.2313 21.7686 10.8243 21.6 10.4 21.6Z" fill="#EE3E54"/>
<path d="M61.6 9.60001C61.3878 9.60001 61.1843 9.68429 61.0343 9.83432C60.8843 9.98435 60.8 10.1878 60.8 10.4C60.8 10.6122 60.8843 10.8157 61.0343 10.9657C61.1843 11.1157 61.3878 11.2 61.6 11.2C61.8122 11.2 62.0157 11.1157 62.1657 10.9657C62.3157 10.8157 62.4 10.6122 62.4 10.4C62.4 10.1878 62.3157 9.98435 62.1657 9.83432C62.0157 9.68429 61.8122 9.60001 61.6 9.60001Z" fill="#F1BC19"/>
<path d="M40 10.4C32.1496 10.4 24.6207 13.5186 19.0696 19.0696C13.5186 24.6207 10.4 32.1496 10.4 40C10.4 47.8504 13.5186 55.3793 19.0696 60.9304C24.6207 66.4814 32.1496 69.6 40 69.6C47.8504 69.6 55.3793 66.4814 60.9304 60.9304C66.4814 55.3793 69.6 47.8504 69.6 40C69.6 32.1496 66.4814 24.6207 60.9304 19.0696C55.3793 13.5186 47.8504 10.4 40 10.4Z" fill="#FCE0A2"/>
<path d="M66.4 8.79999C65.5513 8.79999 64.7374 9.13713 64.1373 9.73725C63.5371 10.3374 63.2 11.1513 63.2 12C63.2 12.8487 63.5371 13.6626 64.1373 14.2627C64.7374 14.8628 65.5513 15.2 66.4 15.2C67.2487 15.2 68.0626 14.8628 68.6627 14.2627C69.2629 13.6626 69.6 12.8487 69.6 12C69.6 11.1513 69.2629 10.3374 68.6627 9.73725C68.0626 9.13713 67.2487 8.79999 66.4 8.79999Z" fill="#F1BC19"/>
<path d="M69.6 17.6C69.1757 17.6 68.7687 17.7686 68.4686 18.0686C68.1686 18.3687 68 18.7757 68 19.2C68 19.6244 68.1686 20.0313 68.4686 20.3314C68.7687 20.6314 69.1757 20.8 69.6 20.8C70.0243 20.8 70.4313 20.6314 70.7314 20.3314C71.0314 20.0313 71.2 19.6244 71.2 19.2C71.2 18.7757 71.0314 18.3687 70.7314 18.0686C70.4313 17.7686 70.0243 17.6 69.6 17.6Z" fill="#EE3E54"/>
<path d="M64.8 59.2C64.3757 59.2 63.9687 59.3686 63.6686 59.6686C63.3686 59.9687 63.2 60.3757 63.2 60.8C63.2 61.2244 63.3686 61.6313 63.6686 61.9314C63.9687 62.2314 64.3757 62.4 64.8 62.4C65.2243 62.4 65.6313 62.2314 65.9314 61.9314C66.2314 61.6313 66.4 61.2244 66.4 60.8C66.4 60.3757 66.2314 59.9687 65.9314 59.6686C65.6313 59.3686 65.2243 59.2 64.8 59.2ZM12 47.2C11.1513 47.2 10.3374 47.5372 9.73726 48.1373C9.13714 48.7374 8.8 49.5513 8.8 50.4C8.8 51.2487 9.13714 52.0626 9.73726 52.6628C10.3374 53.2629 11.1513 53.6 12 53.6C12.8487 53.6 13.6626 53.2629 14.2627 52.6628C14.8629 52.0626 15.2 51.2487 15.2 50.4C15.2 49.5513 14.8629 48.7374 14.2627 48.1373C13.6626 47.5372 12.8487 47.2 12 47.2Z" fill="#FBCD59"/>
<path d="M20 68C19.5757 68 19.1687 68.1686 18.8686 68.4686C18.5686 68.7687 18.4 69.1757 18.4 69.6C18.4 70.0243 18.5686 70.4313 18.8686 70.7314C19.1687 71.0314 19.5757 71.2 20 71.2C20.4243 71.2 20.8313 71.0314 21.1314 70.7314C21.4314 70.4313 21.6 70.0243 21.6 69.6C21.6 69.1757 21.4314 68.7687 21.1314 68.4686C20.8313 68.1686 20.4243 68 20 68Z" fill="#EE3E54"/>
<path d="M14.8 40.8C14.2696 40.8 13.7609 41.0107 13.3858 41.3858C13.0107 41.7608 12.8 42.2696 12.8 42.8C12.8 43.3304 13.0107 43.8391 13.3858 44.2142C13.7609 44.5893 14.2696 44.8 14.8 44.8C15.3304 44.8 15.8391 44.5893 16.2142 44.2142C16.5893 43.8391 16.8 43.3304 16.8 42.8C16.8 42.2696 16.5893 41.7608 16.2142 41.3858C15.8391 41.0107 15.3304 40.8 14.8 40.8Z" fill="white"/>
<path d="M16.8 52.8C16.5878 52.8 16.3843 52.8843 16.2343 53.0343C16.0843 53.1843 16 53.3878 16 53.6C16 53.8122 16.0843 54.0156 16.2343 54.1657C16.3843 54.3157 16.5878 54.4 16.8 54.4C17.0122 54.4 17.2157 54.3157 17.3657 54.1657C17.5157 54.0156 17.6 53.8122 17.6 53.6C17.6 53.3878 17.5157 53.1843 17.3657 53.0343C17.2157 52.8843 17.0122 52.8 16.8 52.8Z" fill="#F1BC19"/>
<path d="M64 26.4C63.7878 26.4 63.5843 26.4843 63.4343 26.6343C63.2843 26.7843 63.2 26.9878 63.2 27.2C63.2 27.4122 63.2843 27.6156 63.4343 27.7657C63.5843 27.9157 63.7878 28 64 28C64.2122 28 64.4157 27.9157 64.5657 27.7657C64.7157 27.6156 64.8 27.4122 64.8 27.2C64.8 26.9878 64.7157 26.7843 64.5657 26.6343C64.4157 26.4843 64.2122 26.4 64 26.4Z" fill="white"/>
<path d="M28 57.84C24.8 57.84 22.16 55.2 22.16 52V28C22.16 24.8 24.8 22.16 28 22.16H52C55.2 22.16 57.84 24.8 57.84 28V52C57.84 55.2 55.2 57.84 52 57.84H28Z" fill="#127AD8"/>
<path d="M52 22.72C54.88 22.72 57.28 25.12 57.28 28V52C57.28 54.88 54.88 57.28 52 57.28H28C25.12 57.28 22.72 54.88 22.72 52V28C22.72 25.12 25.12 22.72 28 22.72H52ZM52 21.6H28C24.48 21.6 21.6 24.48 21.6 28V52C21.6 55.52 24.48 58.4 28 58.4H52C55.52 58.4 58.4 55.52 58.4 52V28C58.4 24.48 55.52 21.6 52 21.6Z" fill="#472B29"/>
<path d="M50.88 54.8H29.2C27.04 54.8 25.36 53.04 25.36 50.96V29.04C25.36 26.88 27.12 25.2 29.2 25.2H50.88C53.04 25.2 54.72 26.96 54.72 29.04V50.88C54.72 53.04 53.04 54.8 50.88 54.8Z" fill="#FDFCEE"/>
<path d="M54.8 37.92C54.56 37.92 54.4 37.76 54.4 37.52V34.4C54.4 34.16 54.56 34 54.8 34C55.04 34 55.2 34.16 55.2 34.4V37.52C55.2 37.76 55.04 37.92 54.8 37.92Z" fill="#472B29"/>
<path d="M54.8 32.4C54.56 32.4 54.4 32.24 54.4 32V30.4C54.4 30.16 54.56 30 54.8 30C55.04 30 55.2 30.16 55.2 30.4V32C55.2 32.24 55.04 32.4 54.8 32.4Z" fill="#472B29"/>
<path d="M51.2 55.2H28.8C26.56 55.2 24.8 53.44 24.8 51.2V28.8C24.8 26.56 26.56 24.8 28.8 24.8H49.12C49.36 24.8 49.52 24.96 49.52 25.2C49.52 25.44 49.36 25.6 49.12 25.6H28.8C27.04 25.6 25.6 27.04 25.6 28.8V51.2C25.6 52.96 27.04 54.4 28.8 54.4H51.2C52.96 54.4 54.4 52.96 54.4 51.2V39.68C54.4 39.44 54.56 39.28 54.8 39.28C55.04 39.28 55.2 39.44 55.2 39.68V51.2C55.2 53.44 53.44 55.2 51.2 55.2Z" fill="#472B29"/>
<path d="M48.4 41.28V46.8H45.12L45.04 41.28C45.04 39.92 44.4 38.88 43.12 38.88C42.16 38.88 41.6 39.52 41.36 40.16C41.28 40.4 41.28 40.72 41.28 40.96V46.72H37.92C37.92 46.72 38 37.36 37.92 36.4H41.28V38C41.76 37.2 42.56 36.32 44.4 36.32C46.72 36.4 48.4 37.84 48.4 41.28Z" fill="#127AD8"/>
<path d="M48.4 47.2H45.12C44.88 47.2 44.72 47.04 44.72 46.8L44.64 41.28C44.64 40.72 44.48 39.28 43.12 39.28C42.24 39.28 41.84 40 41.68 40.32C41.68 40.4 41.6 40.64 41.6 41.04V46.8C41.6 47.04 41.44 47.2 41.2 47.2H37.84C37.76 47.2 37.6 47.12 37.52 47.12C37.44 47.04 37.44 46.96 37.44 46.8C37.44 46.72 37.52 37.44 37.44 36.48C37.44 36.4 37.44 36.24 37.52 36.16C37.6 36.08 37.68 36 37.84 36H41.2C41.44 36 41.6 36.16 41.6 36.4V36.88C42.32 36.24 43.2 35.92 44.32 35.92C45.6 35.92 46.56 36.32 47.36 37.04C48.24 37.92 48.72 39.36 48.72 41.2V46.72C48.8 47.04 48.64 47.2 48.4 47.2ZM45.52 46.4H48V41.28C48 39.68 47.6 38.48 46.88 37.68C46.32 37.12 45.44 36.8 44.48 36.8C42.8 36.8 42.08 37.6 41.68 38.24C41.52 38.56 41.12 38.56 40.96 38.32C40.88 38.24 40.88 38.08 40.96 38V36.88H38.4C38.4 38.64 38.4 44.8 38.4 46.4H40.96V41.04C40.96 40.64 41.04 40.32 41.12 40.08C41.52 39.12 42.32 38.56 43.28 38.56C44.72 38.56 45.6 39.6 45.6 41.36L45.52 46.4Z" fill="#472B29"/>
<path d="M33.92 31.84C32.96 31.84 32.32 32.48 32.32 33.44C32.32 34.32 32.96 35.04 33.92 35.04C34.96 35.04 35.52 34.32 35.52 33.44C35.52 32.48 34.88 31.84 33.92 31.84Z" fill="#127AD8"/>
<path d="M33.92 35.36C32.72 35.36 31.92 34.56 31.92 33.36C31.92 32.16 32.8 31.36 33.92 31.36C35.04 31.36 35.92 32.16 35.92 33.28C35.92 34.56 35.04 35.36 33.92 35.36ZM33.92 32.24C33.2 32.24 32.72 32.72 32.72 33.44C32.72 34.16 33.2 34.64 33.92 34.64C34.64 34.64 35.2 34.16 35.2 33.44C35.12 32.72 34.64 32.24 33.92 32.24Z" fill="#472B29"/>
<path d="M32.32 36.48H35.68V46.8H32.32V36.48Z" fill="#127AD8"/>
<path d="M35.68 47.2H32.32C32.08 47.2 31.92 47.04 31.92 46.8V36.48C31.92 36.24 32.08 36.08 32.32 36.08H35.68C35.92 36.08 36.08 36.24 36.08 36.48V46.8C36.08 47.04 35.92 47.2 35.68 47.2ZM32.72 46.4H35.28V36.88H32.72V46.4Z" fill="#472B29"/>
</svg>
