<svg width="80" height="80" viewBox="0 0 80 80" fill="none" xmlns="http://www.w3.org/2000/svg">
<path d="M62.4 12C62.8418 12 63.2 11.6418 63.2 11.2C63.2 10.7582 62.8418 10.4 62.4 10.4C61.9582 10.4 61.6 10.7582 61.6 11.2C61.6 11.6418 61.9582 12 62.4 12Z" fill="#F1BC19"/>
<path d="M40 70.4C56.7895 70.4 70.4 56.7895 70.4 40C70.4 23.2106 56.7895 9.60001 40 9.60001C23.2106 9.60001 9.60001 23.2106 9.60001 40C9.60001 56.7895 23.2106 70.4 40 70.4Z" fill="#F9DBD2"/>
<path d="M67.2 16C68.9673 16 70.4 14.5673 70.4 12.8C70.4 11.0327 68.9673 9.60001 67.2 9.60001C65.4327 9.60001 64 11.0327 64 12.8C64 14.5673 65.4327 16 67.2 16Z" fill="#F1BC19"/>
<path d="M11.2 22.4C12.0837 22.4 12.8 21.6837 12.8 20.8C12.8 19.9164 12.0837 19.2 11.2 19.2C10.3164 19.2 9.60001 19.9164 9.60001 20.8C9.60001 21.6837 10.3164 22.4 11.2 22.4Z" fill="#EE3E54"/>
<path d="M62.4 63.2C63.2836 63.2 64 62.4837 64 61.6C64 60.7163 63.2836 60 62.4 60C61.5163 60 60.8 60.7163 60.8 61.6C60.8 62.4837 61.5163 63.2 62.4 63.2Z" fill="#FBCD59"/>
<path d="M13.6 65.6C15.3673 65.6 16.8 64.1673 16.8 62.4C16.8 60.6327 15.3673 59.2 13.6 59.2C11.8327 59.2 10.4 60.6327 10.4 62.4C10.4 64.1673 11.8327 65.6 13.6 65.6Z" fill="#FBCD59"/>
<path d="M19.2 68C20.0837 68 20.8 67.2836 20.8 66.4C20.8 65.5163 20.0837 64.8 19.2 64.8C18.3164 64.8 17.6 65.5163 17.6 66.4C17.6 67.2836 18.3164 68 19.2 68Z" fill="#EE3E54"/>
<path d="M53.1864 64.8C54.2835 64.8 55.1728 63.9107 55.1728 62.8136C55.1728 61.7166 54.2835 60.8272 53.1864 60.8272C52.0894 60.8272 51.2 61.7166 51.2 62.8136C51.2 63.9107 52.0894 64.8 53.1864 64.8Z" fill="white"/>
<path d="M12.8 39.2C13.2418 39.2 13.6 38.8418 13.6 38.4C13.6 37.9582 13.2418 37.6 12.8 37.6C12.3582 37.6 12 37.9582 12 38.4C12 38.8418 12.3582 39.2 12.8 39.2Z" fill="white"/>
<path d="M68.8 25.6C69.2418 25.6 69.6 25.2418 69.6 24.8C69.6 24.3582 69.2418 24 68.8 24C68.3582 24 68 24.3582 68 24.8C68 25.2418 68.3582 25.6 68.8 25.6Z" fill="#F1BC19"/>
<path d="M64 54.4C64.8837 54.4 65.6 53.6837 65.6 52.8C65.6 51.9164 64.8837 51.2 64 51.2C63.1163 51.2 62.4 51.9164 62.4 52.8C62.4 53.6837 63.1163 54.4 64 54.4Z" fill="white"/>
<path d="M40 59.4C50.7143 59.4 59.4 50.7143 59.4 40C59.4 29.2857 50.7143 20.6 40 20.6C29.2857 20.6 20.6 29.2857 20.6 40C20.6 50.7143 29.2857 59.4 40 59.4Z" fill="#78A0CF"/>
<path d="M40 59.96C28.9944 59.96 20.04 51.0064 20.04 40C20.04 28.9936 28.9944 20.04 40 20.04C51.0056 20.04 59.96 28.9936 59.96 40C59.96 51.0064 51.0056 59.96 40 59.96ZM40 21.16C29.612 21.16 21.16 29.6112 21.16 40C21.16 50.3888 29.612 58.84 40 58.84C50.388 58.84 58.84 50.388 58.84 40C58.84 29.612 50.388 21.16 40 21.16Z" fill="#472B29"/>
<path d="M39.9504 56.4C48.9805 56.4 56.3008 49.1022 56.3008 40.1C56.3008 31.0977 48.9805 23.8 39.9504 23.8C30.9203 23.8 23.6 31.0977 23.6 40.1C23.6 49.1022 30.9203 56.4 39.9504 56.4Z" fill="#78A0CF"/>
<path d="M55.5392 35.8C55.368 35.8 55.2096 35.6888 55.1568 35.5168C55.0864 35.2872 55.0104 35.06 54.9296 34.8344C54.616 33.9592 54.2208 33.1072 53.7536 32.2992C53.6424 32.1088 53.708 31.8632 53.8992 31.7528C54.0904 31.64 54.3352 31.7072 54.4456 31.8992C54.9368 32.748 55.3528 33.6448 55.6824 34.564C55.7672 34.8016 55.8472 35.04 55.9208 35.2816C55.9856 35.4928 55.8672 35.7168 55.6552 35.7816C55.6168 35.7944 55.5776 35.8 55.5392 35.8Z" fill="#472B29"/>
<path d="M40 56.7C30.7912 56.7 23.3 49.2304 23.3 40.0496C23.3 30.8688 30.7912 23.4 40 23.4C44.78 23.4 49.3392 25.448 52.5088 29.0184C52.748 29.288 52.9792 29.5664 53.2008 29.8512C53.336 30.0256 53.3048 30.276 53.1312 30.412C52.9568 30.5496 52.7056 30.5168 52.5696 30.3416C52.3584 30.0704 52.1376 29.8064 51.9104 29.5496C48.8928 26.1504 44.5512 24.2 40 24.2C31.2328 24.2 24.1 31.3104 24.1 40.0504C24.1 48.7904 31.2328 55.9 40 55.9C48.7672 55.9 55.9 48.7896 55.9 40.0496C55.9 39.2536 55.84 38.4528 55.7224 37.6712C55.6896 37.4536 55.84 37.2496 56.0584 37.2168C56.2808 37.184 56.4808 37.3344 56.5136 37.5528C56.6368 38.3728 56.7 39.2136 56.7 40.0496C56.7 49.2304 49.2088 56.7 40 56.7Z" fill="#472B29"/>
<path d="M50.3528 34.2176C49.6352 34.5432 48.8648 34.7632 48.0536 34.8608C48.88 34.3552 49.5144 33.5536 49.8136 32.5992C49.04 33.0672 48.1832 33.408 47.2728 33.5912C46.5424 32.7968 45.5024 32.3 44.3504 32.3C42.14 32.3 40.3496 34.1304 40.3496 36.3888C40.3496 36.7088 40.3848 37.0216 40.452 37.3208C37.1256 37.1504 34.1776 35.5224 32.204 33.048C31.86 33.652 31.6624 34.3544 31.6624 35.104C31.6624 36.5232 32.3688 37.7744 33.4416 38.5088C32.7864 38.4872 32.1688 38.304 31.6288 37.9976C31.628 38.0144 31.628 38.032 31.628 38.0488C31.628 40.0312 33.0072 41.684 34.8376 42.0592C34.5024 42.152 34.1488 42.2024 33.7832 42.2024C33.5248 42.2024 33.2744 42.1768 33.0312 42.1296C33.54 43.7536 35.0184 44.936 36.7688 44.9696C35.4 46.0664 33.6744 46.7208 31.8 46.7208C31.4768 46.7208 31.1576 46.7008 30.8456 46.664C32.616 47.8232 34.72 48.5 36.98 48.5C44.3408 48.5 48.3664 42.2688 48.3664 36.864C48.3664 36.6872 48.3616 36.5104 48.3544 36.3344C49.1376 35.7576 49.8152 35.0392 50.3528 34.2176Z" fill="white"/>
<path d="M36.98 48.9C34.724 48.9 32.5272 48.2424 30.6264 46.9984C30.4712 46.8968 30.4064 46.7016 30.4696 46.5272C30.5328 46.3528 30.7096 46.2416 30.8928 46.2672C32.5808 46.4688 34.2824 46.1 35.7168 45.2208C34.2856 44.836 33.1136 43.7312 32.6496 42.2488C32.6072 42.1144 32.6392 41.9672 32.7328 41.8624C32.8264 41.7576 32.9696 41.7072 33.1072 41.7376C33.1128 41.7384 33.1176 41.7392 33.1232 41.74C31.968 40.9208 31.228 39.5552 31.228 38.0496C31.228 37.9072 31.304 37.7496 31.4272 37.6784C31.5496 37.6064 31.7024 37.5792 31.8264 37.6504C31.9312 37.7096 32.04 37.764 32.1496 37.812C31.5808 37.0432 31.2616 36.0968 31.2616 35.1048C31.2616 34.3136 31.4672 33.5336 31.856 32.8512C31.9216 32.7352 32.04 32.6608 32.1728 32.6504C32.3096 32.6408 32.4344 32.696 32.5168 32.8C34.3752 35.128 37.0712 36.5992 39.976 36.8848C39.9592 36.7216 39.9504 36.556 39.9504 36.3896C39.9504 33.9144 41.924 31.9008 44.3504 31.9008C45.488 31.9008 46.588 32.3544 47.4048 33.1544C48.1784 32.9752 48.9184 32.6744 49.6064 32.2584C49.7488 32.172 49.9296 32.1832 50.06 32.2856C50.1912 32.3888 50.2448 32.5616 50.1944 32.72C50.0312 33.24 49.7768 33.7216 49.448 34.1424C49.6984 34.0592 49.9448 33.9632 50.1856 33.8544C50.348 33.7808 50.5384 33.8232 50.6544 33.9584C50.7704 34.0928 50.7832 34.288 50.6856 34.4376C50.1592 35.244 49.512 35.9464 48.7608 36.528C48.764 36.6408 48.7656 36.752 48.7656 36.8648C48.7664 42.7808 44.3576 48.9 36.98 48.9ZM32.4448 47.0968C33.864 47.756 35.4064 48.1 36.98 48.1C43.8576 48.1 47.9664 42.3872 47.9664 36.864C47.9664 36.692 47.9624 36.5208 47.9552 36.3504C47.9496 36.2168 48.0104 36.0904 48.1176 36.0112C48.5072 35.7248 48.8672 35.4032 49.1952 35.0504C48.8368 35.144 48.4712 35.2128 48.1008 35.2576C47.9176 35.2848 47.7368 35.1704 47.6752 34.992C47.6136 34.8144 47.684 34.6176 47.844 34.5192C48.2752 34.256 48.6432 33.9064 48.9304 33.4976C48.4216 33.7128 47.8936 33.8752 47.3504 33.9832C47.2136 34.012 47.0728 33.9656 46.9776 33.8616C46.2992 33.1232 45.3416 32.7 44.3504 32.7C42.3656 32.7 40.7504 34.3544 40.7504 36.3888C40.7504 36.6768 40.7816 36.9616 40.8432 37.2328C40.8712 37.3544 40.84 37.4832 40.7592 37.5792C40.6784 37.6752 40.5592 37.7304 40.432 37.7208C37.3192 37.5608 34.3904 36.136 32.3008 33.784C32.144 34.2032 32.0624 34.652 32.0624 35.1048C32.0624 36.3424 32.6624 37.4912 33.668 38.1792C33.8152 38.28 33.8776 38.4648 33.8224 38.6336C33.7672 38.8024 33.6024 38.9024 33.4288 38.9096C32.9688 38.8936 32.512 38.804 32.08 38.6456C32.3272 40.1512 33.4448 41.3656 34.9184 41.6672C35.0992 41.7048 35.2312 41.8608 35.2376 42.0456C35.244 42.2304 35.1232 42.396 34.9448 42.4448C34.5248 42.5616 34.0944 42.6152 33.6552 42.6008C34.2584 43.776 35.4464 44.544 36.7768 44.5696C36.9448 44.5728 37.0936 44.6816 37.1472 44.8408C37.2008 45 37.1504 45.1768 37.0184 45.2824C35.6872 46.3496 34.1168 46.9704 32.4448 47.0968Z" fill="#472B29"/>
</svg>
