<svg width="80" height="80" viewBox="0 0 80 80" fill="none" xmlns="http://www.w3.org/2000/svg">
<path d="M61.6 9.60001C61.3878 9.60001 61.1843 9.68429 61.0343 9.83432C60.8843 9.98435 60.8 10.1878 60.8 10.4C60.8 10.6122 60.8843 10.8157 61.0343 10.9657C61.1843 11.1157 61.3878 11.2 61.6 11.2C61.8122 11.2 62.0157 11.1157 62.1657 10.9657C62.3157 10.8157 62.4 10.6122 62.4 10.4C62.4 10.1878 62.3157 9.98435 62.1657 9.83432C62.0157 9.68429 61.8122 9.60001 61.6 9.60001Z" fill="#F1BC19"/>
<path d="M40 10.4C32.1496 10.4 24.6207 13.5186 19.0696 19.0696C13.5186 24.6207 10.4 32.1496 10.4 40C10.4 47.8504 13.5186 55.3793 19.0696 60.9304C24.6207 66.4814 32.1496 69.6 40 69.6C47.8504 69.6 55.3793 66.4814 60.9304 60.9304C66.4814 55.3793 69.6 47.8504 69.6 40C69.6 32.1496 66.4814 24.6207 60.9304 19.0696C55.3793 13.5186 47.8504 10.4 40 10.4Z" fill="#E6EDB7"/>
<path d="M66.4 8.79999C65.5513 8.79999 64.7374 9.13713 64.1373 9.73725C63.5371 10.3374 63.2 11.1513 63.2 12C63.2 12.8487 63.5371 13.6626 64.1373 14.2627C64.7374 14.8628 65.5513 15.2 66.4 15.2C67.2487 15.2 68.0626 14.8628 68.6627 14.2627C69.2629 13.6626 69.6 12.8487 69.6 12C69.6 11.1513 69.2629 10.3374 68.6627 9.73725C68.0626 9.13713 67.2487 8.79999 66.4 8.79999Z" fill="#F1BC19"/>
<path d="M69.6 17.6C69.1757 17.6 68.7687 17.7686 68.4686 18.0686C68.1686 18.3687 68 18.7757 68 19.2C68 19.6244 68.1686 20.0313 68.4686 20.3314C68.7687 20.6314 69.1757 20.8 69.6 20.8C70.0243 20.8 70.4313 20.6314 70.7314 20.3314C71.0314 20.0313 71.2 19.6244 71.2 19.2C71.2 18.7757 71.0314 18.3687 70.7314 18.0686C70.4313 17.7686 70.0243 17.6 69.6 17.6Z" fill="#88AE45"/>
<path d="M64.8 59.2C64.3757 59.2 63.9687 59.3686 63.6686 59.6686C63.3686 59.9687 63.2 60.3757 63.2 60.8C63.2 61.2244 63.3686 61.6313 63.6686 61.9314C63.9687 62.2314 64.3757 62.4 64.8 62.4C65.2243 62.4 65.6313 62.2314 65.9314 61.9314C66.2314 61.6313 66.4 61.2244 66.4 60.8C66.4 60.3757 66.2314 59.9687 65.9314 59.6686C65.6313 59.3686 65.2243 59.2 64.8 59.2ZM12 47.2C11.1513 47.2 10.3374 47.5372 9.73726 48.1373C9.13714 48.7374 8.8 49.5513 8.8 50.4C8.8 51.2487 9.13714 52.0626 9.73726 52.6628C10.3374 53.2629 11.1513 53.6 12 53.6C12.8487 53.6 13.6626 53.2629 14.2627 52.6628C14.8629 52.0626 15.2 51.2487 15.2 50.4C15.2 49.5513 14.8629 48.7374 14.2627 48.1373C13.6626 47.5372 12.8487 47.2 12 47.2Z" fill="#FBCD59"/>
<path d="M20 68C19.5756 68 19.1687 68.1686 18.8686 68.4686C18.5686 68.7687 18.4 69.1757 18.4 69.6C18.4 70.0243 18.5686 70.4313 18.8686 70.7314C19.1687 71.0314 19.5756 71.2 20 71.2C20.4243 71.2 20.8313 71.0314 21.1314 70.7314C21.4314 70.4313 21.6 70.0243 21.6 69.6C21.6 69.1757 21.4314 68.7687 21.1314 68.4686C20.8313 68.1686 20.4243 68 20 68Z" fill="#88AE45"/>
<path d="M14.8 39.2C14.2696 39.2 13.7609 39.4107 13.3858 39.7858C13.0107 40.1609 12.8 40.6696 12.8 41.2C12.8 41.7304 13.0107 42.2392 13.3858 42.6142C13.7609 42.9893 14.2696 43.2 14.8 43.2C15.3304 43.2 15.8391 42.9893 16.2142 42.6142C16.5893 42.2392 16.8 41.7304 16.8 41.2C16.8 40.6696 16.5893 40.1609 16.2142 39.7858C15.8391 39.4107 15.3304 39.2 14.8 39.2ZM63.6 25.6C63.2817 25.6 62.9765 25.7264 62.7515 25.9515C62.5264 26.1765 62.4 26.4817 62.4 26.8C62.4 27.1183 62.5264 27.4235 62.7515 27.6485C62.9765 27.8736 63.2817 28 63.6 28C63.9183 28 64.2235 27.8736 64.4485 27.6485C64.6736 27.4235 64.8 27.1183 64.8 26.8C64.8 26.4817 64.6736 26.1765 64.4485 25.9515C64.2235 25.7264 63.9183 25.6 63.6 25.6Z" fill="white"/>
<path d="M40 57.84C35.3336 57.8392 29.0792 57.732 26.6808 57.536C23.4856 57.264 23.1656 54.18 23.0168 49.1328L23.0072 48.8344C22.9936 48.384 22.98 47.9376 22.9592 47.4984C22.96 45.1272 23.2048 42.3696 23.5984 40.328C24.2536 37.656 25.576 37.616 28.7688 37.5184C29.2496 37.504 29.7544 37.4888 30.2776 37.4608C30.2776 37.4608 30.5736 37.4568 30.8544 37.4512C32.104 37.424 35.0248 37.36 39.8896 37.36L40.1144 37.3608C44.9264 37.3608 47.8312 37.4232 49.072 37.4496C49.072 37.4496 49.696 37.4632 49.7776 37.4632C50.2424 37.4888 50.7472 37.5048 51.2288 37.5184C54.4224 37.616 55.7448 37.656 56.4112 40.3776C56.796 42.3832 57.0392 45.1392 57.0392 47.5456C57.0192 47.9776 57.004 48.4624 56.9888 48.9536L56.9832 49.1312C56.8344 54.1792 56.5144 57.2632 53.3168 57.5344C50.9264 57.732 44.6712 57.8392 40 57.84Z" fill="#EA5167"/>
<path d="M39.888 37.92L40.1152 37.9208C44.952 37.9208 47.848 37.9832 49.0848 38.0104L49.1304 38.0112C49.436 38.0176 49.6392 38.0216 49.7456 38.0224C50.236 38.0488 50.736 38.064 51.212 38.0784C54.508 38.1784 55.3168 38.2864 55.8616 40.4848C56.2424 42.4744 56.4784 45.164 56.48 47.52C56.4592 47.9768 56.444 48.46 56.4288 48.9496L56.424 49.1152C56.272 54.2896 55.9112 56.752 53.272 56.976C50.9024 57.172 44.6648 57.2792 40 57.28C35.3376 57.2792 29.1008 57.1728 26.7296 56.9776C24.0888 56.7536 23.7288 54.2912 23.576 49.1144L23.5672 48.8384C23.5536 48.3872 23.54 47.9392 23.52 47.4992C23.5216 45.1528 23.76 42.4616 24.1432 40.4616C24.6824 38.2856 25.4912 38.1784 28.7872 38.0784C29.2664 38.064 29.768 38.048 30.2896 38.0208C30.3816 38.0192 30.6192 38.016 30.8688 38.0104C31.9904 37.9864 34.9704 37.92 39.888 37.92ZM39.8904 36.8C35.0168 36.8 32.092 36.864 30.8432 36.8912C30.54 36.8976 30.2536 36.9016 30.2488 36.9016C29.7296 36.9296 29.2288 36.9448 28.752 36.9592C25.5648 37.056 23.8104 37.1096 23.048 40.2216C22.6488 42.2968 22.4 45.1032 22.4 47.5248C22.4248 48.0576 22.4392 48.6016 22.4568 49.1496C22.5872 53.5776 22.7104 57.76 26.6352 58.0936C29.0352 58.2912 35.312 58.3992 39.9992 58.4C44.6872 58.3992 50.9632 58.2912 53.364 58.0928C57.2896 57.7592 57.4128 53.5768 57.5432 49.1488C57.56 48.6008 57.576 48.0568 57.6 47.5464C57.6 45.1024 57.3504 42.296 56.956 40.2456C56.188 37.1096 54.432 37.056 51.2464 36.9592C50.7696 36.9448 50.2696 36.9296 49.7784 36.9024C49.6888 36.9024 49.4832 36.8984 49.1552 36.8912C47.916 36.8648 45.024 36.8008 40.1152 36.8008C40.0792 36.8008 39.8904 36.8 39.8904 36.8Z" fill="#472B29"/>
<path d="M39.2 54.3576H37.1088V52.968C36.8472 53.3472 36.1936 54.3568 34.7992 54.3576C34.1032 54.3576 32.9264 53.852 32.9264 52.3368V43.2424H35.0176V51.9584C35.0176 52.1912 35.0368 52.5968 35.8016 52.5896C36.652 52.5816 37.1088 51.5792 37.1088 51.5792V43.2424H39.2V54.3576Z" fill="white"/>
<path d="M32 42.2312H29.8664V54.3576H27.7336V42.2312H25.6V40.2104H32V42.2312Z" fill="white"/>
<path d="M47.0736 45.8288C47.0736 44.9568 46.788 44.3656 46.4232 43.92C46.0616 43.4744 45.528 43.2416 44.8496 43.2416C44.5096 43.2416 44.1712 43.3328 43.832 43.4992C43.492 43.6632 43.1312 43.9488 42.8912 44.3128V40.2104H40.8V54.3576H42.8912V52.968C43.2952 53.424 43.8832 54.3688 44.9824 54.3576C46.5512 54.3576 47.0736 52.968 47.0736 51.8312V45.8288ZM44.9824 51.3496C44.9824 51.9072 44.5136 52.3368 43.9368 52.3368C43.36 52.3368 42.9008 52.1224 42.8912 51.8312V45.8288C42.9008 45.3208 43.36 44.8184 43.9368 44.8184C44.5136 44.8184 44.9824 45.2624 44.9824 46.2736V51.3496Z" fill="white"/>
<path d="M54.4 49.3056V46.1568C54.4 45.148 53.8736 43.2424 51.2424 43.2424C48.7424 43.2424 48.088 45.2432 48.088 46.1568V50.9144C48.088 51.948 48.3808 52.7464 48.9384 53.3312C49.5016 53.916 50.2816 54.1984 51.2824 54.1984C52.3752 54.1984 53.2088 53.9376 53.7432 53.3752C54.3072 52.836 54.4 52.0184 54.4 50.9144V50.316H52.2944V50.8216C52.2944 51.4312 52.232 51.8992 52.0848 52.0656C51.9392 52.2512 51.6688 52.3336 51.2416 52.3376C50.8552 52.3416 50.5616 52.2384 50.416 52.0064C50.2672 51.7952 50.1888 51.4312 50.1888 50.8688V49.3064H54.4V49.3056ZM50.1896 46.2736C50.1992 45.7312 50.6608 45.2632 51.2424 45.2632C51.8232 45.2632 52.2952 45.652 52.2952 46.2736V47.284H50.1896V46.2736Z" fill="white"/>
<path d="M34.9472 20L32.9264 25.6592L30.9056 20H28.884L31.916 28.4888V34.1472H33.9368V28.4888L36.9688 20H34.9472Z" fill="#36404D"/>
<path d="M48.084 23.5368V31.368C48.084 31.368 47.6424 32.3704 46.8208 32.3784C46.0808 32.3856 46.0632 31.9792 46.0632 31.7472V23.5368H44.0424V32.1264C44.0424 33.6424 45.1792 34.1472 45.852 34.1472C47.2 34.1472 47.832 33.1368 48.084 32.7576V34.0208H50.1048V23.5368H48.084Z" fill="#36404D"/>
<path d="M39.7472 34.1472C38.076 34.1472 36.716 32.7584 36.716 31.052V26.5048C36.716 24.7992 38.076 23.4096 39.7472 23.4096C41.4184 23.4096 42.7784 24.7984 42.7784 26.5048V31.052C42.7792 32.7592 41.4184 34.1472 39.7472 34.1472ZM39.7472 25.3056C39.1896 25.3056 38.7368 25.8056 38.7368 26.4216V31.1376C38.7368 31.7528 39.1896 32.2536 39.7472 32.2536C40.3048 32.2536 40.7576 31.7536 40.7576 31.1376V26.4216C40.7576 25.8056 40.3048 25.3056 39.7472 25.3056Z" fill="#36404D"/>
</svg>
